<?xml version="1.0" encoding="UTF-8" standalone="no"?>
<!-- Created with Inkscape (http://www.inkscape.org/) -->

<svg
   xmlns:dc="http://purl.org/dc/elements/1.1/"
   xmlns:cc="http://creativecommons.org/ns#"
   xmlns:rdf="http://www.w3.org/1999/02/22-rdf-syntax-ns#"
   xmlns:svg="http://www.w3.org/2000/svg"
   xmlns="http://www.w3.org/2000/svg"
   xmlns:sodipodi="http://sodipodi.sourceforge.net/DTD/sodipodi-0.dtd"
   xmlns:inkscape="http://www.inkscape.org/namespaces/inkscape"
   sodipodi:docname="NovaLabsDoorSwitchBox.dxf"
   inkscape:version="0.48.2 r9819"
   version="1.1"
   id="svg2"
   height="2505.1182"
   width="1771.6536">
  <sodipodi:namedview
     id="base"
     pagecolor="#ffffff"
     bordercolor="#666666"
     borderopacity="1.0"
     inkscape:pageopacity="0.0"
     inkscape:pageshadow="2"
     inkscape:zoom="0.30451777"
     inkscape:cx="1381.5976"
     inkscape:cy="1396.9098"
     inkscape:document-units="px"
     inkscape:current-layer="layer3"
     showgrid="false"
     inkscape:window-width="1600"
     inkscape:window-height="1153"
     inkscape:window-x="-4"
     inkscape:window-y="-4"
     inkscape:window-maximized="1"
     showguides="true"
     inkscape:guide-bbox="true"
     objecttolerance="10000"
     inkscape:snap-global="true"
     inkscape:snap-bbox="false"
     inkscape:bbox-nodes="false"
     inkscape:snap-bbox-edge-midpoints="false"
     inkscape:snap-bbox-midpoints="false"
     inkscape:bbox-paths="false"
     inkscape:snap-nodes="false"
     inkscape:snap-to-guides="false"
     inkscape:snap-grids="false"
     inkscape:snap-page="false">
    <inkscape:grid
       type="xygrid"
       id="grid3396"
       empspacing="5"
       visible="true"
       enabled="true"
       snapvisiblegridlinesonly="true"
       units="in"
       spacingx="0.25in"
       spacingy="0.25in" />
  </sodipodi:namedview>
  <defs
     id="defs4">
    <marker
       inkscape:stockid="Arrow1Lend"
       orient="auto"
       refY="0.0"
       refX="0.0"
       id="Arrow1Lend"
       style="overflow:visible;">
      <path
         id="path4855"
         d="M 0.0,0.0 L 5.0,-5.0 L -12.5,0.0 L 5.0,5.0 L 0.0,0.0 z "
         style="fill-rule:evenodd;stroke:#000000;stroke-width:1.0pt;marker-start:none;"
         transform="scale(0.8) rotate(180) translate(12.5,0)" />
    </marker>
    <marker
       inkscape:stockid="Arrow1Lstart"
       orient="auto"
       refY="0.0"
       refX="0.0"
       id="Arrow1Lstart"
       style="overflow:visible">
      <path
         id="path4852"
         d="M 0.0,0.0 L 5.0,-5.0 L -12.5,0.0 L 5.0,5.0 L 0.0,0.0 z "
         style="fill-rule:evenodd;stroke:#000000;stroke-width:1.0pt;marker-start:none"
         transform="scale(0.8) translate(12.5,0)" />
    </marker>
    <clipPath
       id="clipPath2578-7"
       clipPathUnits="userSpaceOnUse">
      <path
         inkscape:connector-curvature="0"
         id="path2580-4"
         d="M 0,900 1800,900 1800,0 0,0 0,900 z" />
    </clipPath>
    <clipPath
       id="clipPath2578-7-0"
       clipPathUnits="userSpaceOnUse">
      <path
         inkscape:connector-curvature="0"
         id="path2580-4-9"
         d="M 0,900 1800,900 1800,0 0,0 0,900 z" />
    </clipPath>
    <clipPath
       id="clipPath2578-7-0-4"
       clipPathUnits="userSpaceOnUse">
      <path
         inkscape:connector-curvature="0"
         id="path2580-4-9-8"
         d="M 0,900 1800,900 1800,0 0,0 0,900 z" />
    </clipPath>
  </defs>
  <metadata
     id="metadata7">
    <rdf:RDF>
      <cc:Work
         rdf:about="">
        <dc:format>image/svg+xml</dc:format>
        <dc:type
           rdf:resource="http://purl.org/dc/dcmitype/StillImage" />
        <dc:title></dc:title>
      </cc:Work>
    </rdf:RDF>
  </metadata>
  <g
     inkscape:groupmode="layer"
     id="layer3"
     inkscape:label="CUT"
     style="display:inline">
    <path
       style="font-size:medium;font-style:normal;font-variant:normal;font-weight:normal;font-stretch:normal;text-indent:0;text-align:start;text-decoration:none;line-height:normal;letter-spacing:normal;word-spacing:normal;text-transform:none;direction:ltr;block-progression:tb;writing-mode:lr-tb;text-anchor:start;baseline-shift:baseline;color:#000000;fill:none;fill-opacity:1;stroke:#ff0000;stroke-width:0.03543307000000000;marker:none;visibility:visible;display:inline;overflow:visible;enable-background:accumulate;font-family:Sans;-inkscape-font-specification:Sans;stroke-miterlimit:4;stroke-dasharray:none"
       d="m 342.11047,392.0009 0,0.15625 0,89.65625 0,0.1875 0.15625,0 44.6875,0 0.15625,0 0,-0.1875 0,-89.65625 0,-0.15625 -0.15625,0 -44.6875,0 -0.15625,0 z m 0.3125,0.3125 44.375,0 0,89.34375 -44.375,0 0,-89.34375 z"
       id="rect3201"
       inkscape:connector-curvature="0" />
    <path
       style="font-size:medium;font-style:normal;font-variant:normal;font-weight:normal;font-stretch:normal;text-indent:0;text-align:start;text-decoration:none;line-height:normal;letter-spacing:normal;word-spacing:normal;text-transform:none;direction:ltr;block-progression:tb;writing-mode:lr-tb;text-anchor:start;baseline-shift:baseline;color:#000000;fill:none;fill-opacity:1;stroke:#ff0000;stroke-width:0.03543307000000000;marker:none;visibility:visible;display:inline;overflow:visible;enable-background:accumulate;font-family:Sans;-inkscape-font-specification:Sans;stroke-miterlimit:4;stroke-dasharray:none"
       d="m 364.61602,575.99326 c -4.09947,0 -7.43328,3.33381 -7.43328,7.43328 0,4.09946 3.33381,7.41464 7.43328,7.41464 4.09946,0 7.41464,-3.31518 7.41464,-7.41464 0,-4.09947 -3.31518,-7.43328 -7.41464,-7.43328 z m 0,0.20492 c 3.9853,0 7.20972,3.24305 7.20972,7.22836 0,3.98529 -3.22442,7.20972 -7.20972,7.20972 -3.9853,0 -7.22835,-3.22443 -7.22835,-7.20972 0,-3.98531 3.24305,-7.22836 7.22835,-7.22836 z"
       id="path3203-1"
       inkscape:connector-curvature="0" />
    <path
       style="font-size:medium;font-style:normal;font-variant:normal;font-weight:normal;font-stretch:normal;text-indent:0;text-align:start;text-decoration:none;line-height:normal;letter-spacing:normal;word-spacing:normal;text-transform:none;direction:ltr;block-progression:tb;writing-mode:lr-tb;text-anchor:start;baseline-shift:baseline;color:#000000;fill:none;fill-opacity:1;stroke:#ff0000;stroke-width:0.03543307000000000;marker:none;visibility:visible;display:inline;overflow:visible;enable-background:accumulate;font-family:Sans;-inkscape-font-specification:Sans;stroke-miterlimit:4;stroke-dasharray:none"
       d="m 30.641719,72.407147 0,1 94.187501,0 0,20.78125 0,0.5 0.5,0 94.625,0 0.5,0 0,-0.5 0,-20.78125 93.6875,0 0,20.78125 0,0.5 0.5,0 94.625,0 0.5,0 0,-0.5 0,-20.78125 93.6875,0 0,20.78125 0,0.5 0.5,0 94.625,0 0.5,0 0,-0.5 0,-20.78125 94.15625,0 0,-1 -94.65625,0 -0.5,0 0,0.5 0,20.78125 -93.625,0 0,-20.78125 0,-0.5 -0.5,0 -94.6875,0 -0.5,0 0,0.5 0,20.78125 -93.625,0 0,-20.78125 0,-0.5 -0.5,0 -94.6875,0 -0.5,0 0,0.5 0,20.78125 -93.625,0 0,-20.78125 0,-0.5 -0.5,0 -94.687501,0 z"
       id="path3252"
       inkscape:connector-curvature="0" />
    <path
       style="font-size:medium;font-style:normal;font-variant:normal;font-weight:normal;font-stretch:normal;text-indent:0;text-align:start;text-decoration:none;line-height:normal;letter-spacing:normal;word-spacing:normal;text-transform:none;direction:ltr;block-progression:tb;writing-mode:lr-tb;text-anchor:start;baseline-shift:baseline;color:#000000;fill:none;fill-opacity:1;stroke:#ff0000;stroke-width:0.03543307000000000;marker:none;visibility:visible;display:inline;overflow:visible;enable-background:accumulate;font-family:Sans;-inkscape-font-specification:Sans;stroke-miterlimit:4;stroke-dasharray:none"
       d="m 692.73547,72.907147 0,94.187503 -20.75,0 -0.5,0 0,0.5 0,94.625 0,0.5 0.5,0 20.75,0 0,93.6875 -20.75,0 -0.5,0 0,0.5 0,94.625 0,0.5 0.5,0 20.75,0 0,93.6875 -20.75,0 -0.5,0 0,0.5 0,94.625 0,0.5 0.5,0 20.75,0 0,94.15625 1,0 0,-94.65625 0,-0.5 -0.5,0 -20.75,0 0,-93.625 20.75,0 0.5,0 0,-0.5 0,-94.6875 0,-0.5 -0.5,0 -20.75,0 0,-93.625 20.75,0 0.5,0 0,-0.5 0,-94.6875 0,-0.5 -0.5,0 -20.75,0 0,-93.625 20.75,0 0.5,0 0,-0.5 0,-94.687503 -1,0 z"
       id="path3254"
       inkscape:connector-curvature="0" />
    <path
       style="font-size:medium;font-style:normal;font-variant:normal;font-weight:normal;font-stretch:normal;text-indent:0;text-align:start;text-decoration:none;line-height:normal;letter-spacing:normal;word-spacing:normal;text-transform:none;direction:ltr;block-progression:tb;writing-mode:lr-tb;text-anchor:start;baseline-shift:baseline;color:#000000;fill:none;fill-opacity:1;stroke:#ff0000;stroke-width:0.03543307000000000;marker:none;visibility:visible;display:inline;overflow:visible;enable-background:accumulate;font-family:Sans;-inkscape-font-specification:Sans;stroke-miterlimit:4;stroke-dasharray:none"
       d="m 124.82922,713.7509 0,0.5 0,20.75 -94.187501,0 0,1 94.687501,0 0.5,0 0,-0.5 0,-20.75 93.625,0 0,20.75 0,0.5 0.5,0 94.6875,0 0.5,0 0,-0.5 0,-20.75 93.625,0 0,20.75 0,0.5 0.5,0 94.6875,0 0.5,0 0,-0.5 0,-20.75 93.625,0 0,20.75 0,0.5 0.5,0 94.65625,0 0,-1 -94.15625,0 0,-20.75 0,-0.5 -0.5,0 -94.625,0 -0.5,0 0,0.5 0,20.75 -93.6875,0 0,-20.75 0,-0.5 -0.5,0 -94.625,0 -0.5,0 0,0.5 0,20.75 -93.6875,0 0,-20.75 0,-0.5 -0.5,0 -94.625,0 -0.5,0 z"
       id="path3256"
       inkscape:connector-curvature="0" />
    <path
       style="font-size:medium;font-style:normal;font-variant:normal;font-weight:normal;font-stretch:normal;text-indent:0;text-align:start;text-decoration:none;line-height:normal;letter-spacing:normal;word-spacing:normal;text-transform:none;direction:ltr;block-progression:tb;writing-mode:lr-tb;text-anchor:start;baseline-shift:baseline;color:#000000;fill:none;fill-opacity:1;stroke:#ff0000;stroke-width:0.03543307000000000;marker:none;visibility:visible;display:inline;overflow:visible;enable-background:accumulate;font-family:Sans;-inkscape-font-specification:Sans;stroke-miterlimit:4;stroke-dasharray:none"
       d="m 30.141719,72.907147 0,94.687503 0,0.5 0.5,0 20.78125,0 0,93.625 -20.78125,0 -0.5,0 0,0.5 0,94.6875 0,0.5 0.5,0 20.78125,0 0,93.625 -20.78125,0 -0.5,0 0,0.5 0,94.6875 0,0.5 0.5,0 20.78125,0 0,93.625 -20.78125,0 -0.5,0 0,0.5 0,94.65625 1,0 0,-94.15625 20.78125,0 0.5,0 0,-0.5 0,-94.625 0,-0.5 -0.5,0 -20.78125,0 0,-93.6875 20.78125,0 0.5,0 0,-0.5 0,-94.625 0,-0.5 -0.5,0 -20.78125,0 0,-93.6875 20.78125,0 0.5,0 0,-0.5 0,-94.625 0,-0.5 -0.5,0 -20.78125,0 0,-94.187503 -1,0 z"
       id="path3258"
       inkscape:connector-curvature="0" />
    <path
       style="font-size:medium;font-style:normal;font-variant:normal;font-weight:normal;font-stretch:normal;text-indent:0;text-align:start;text-decoration:none;line-height:normal;letter-spacing:normal;word-spacing:normal;text-transform:none;direction:ltr;block-progression:tb;writing-mode:lr-tb;text-anchor:start;baseline-shift:baseline;color:#000000;fill:none;fill-opacity:1;stroke:#ff0000;stroke-width:0.03543307000000000;marker:none;visibility:visible;display:inline;overflow:visible;enable-background:accumulate;font-family:Sans;-inkscape-font-specification:Sans;stroke-miterlimit:4;stroke-dasharray:none"
       d="m 696.79797,72.407147 0,1 94.15625,0 0,20.78125 0,0.5 0.5,0 94.625,0 0.5,0 0,-0.5 0,-20.78125 93.6875,0 0,20.78125 0,0.5 0.5,0 94.62498,0 0.5,0 0,-0.5 0,-20.78125 93.7188,0 0,20.78125 0,0.5 0.5,0 94.5937,0 0.5,0 0,-0.5 0,-20.78125 94.1875,0 0,-1 -94.6875,0 -0.5,0 0,0.5 0,20.78125 -93.5937,0 0,-20.78125 0,-0.5 -0.5,0 -94.7188,0 -0.5,0 0,0.5 0,20.78125 -93.62498,0 0,-20.78125 0,-0.5 -0.5,0 -94.6875,0 -0.5,0 0,0.5 0,20.78125 -93.625,0 0,-20.78125 0,-0.5 -0.5,0 -94.65625,0 z"
       id="path3260"
       inkscape:connector-curvature="0" />
    <path
       style="font-size:medium;font-style:normal;font-variant:normal;font-weight:normal;font-stretch:normal;text-indent:0;text-align:start;text-decoration:none;line-height:normal;letter-spacing:normal;word-spacing:normal;text-transform:none;direction:ltr;block-progression:tb;writing-mode:lr-tb;text-anchor:start;baseline-shift:baseline;color:#000000;fill:none;fill-opacity:1;stroke:#ff0000;stroke-width:0.03543307000000000;marker:none;visibility:visible;display:inline;overflow:visible;enable-background:accumulate;font-family:Sans;-inkscape-font-specification:Sans;stroke-miterlimit:4;stroke-dasharray:none"
       d="m 1358.8917,72.907147 0,94.187503 -20.75,0 -0.5,0 0,0.5 0,94.625 0,0.5 0.5,0 20.75,0 0,93.6875 -20.75,0 -0.5,0 0,0.5 0,94.625 0,0.5 0.5,0 20.75,0 0,93.6875 -20.75,0 -0.5,0 0,0.5 0,94.625 0,0.5 0.5,0 20.75,0 0,94.15625 1,0 0,-94.65625 0,-0.5 -0.5,0 -20.75,0 0,-93.625 20.75,0 0.5,0 0,-0.5 0,-94.6875 0,-0.5 -0.5,0 -20.75,0 0,-93.625 20.75,0 0.5,0 0,-0.5 0,-94.6875 0,-0.5 -0.5,0 -20.75,0 0,-93.625 20.75,0 0.5,0 0,-0.5 0,-94.687503 -1,0 z"
       id="path3262"
       inkscape:connector-curvature="0" />
    <path
       style="font-size:medium;font-style:normal;font-variant:normal;font-weight:normal;font-stretch:normal;text-indent:0;text-align:start;text-decoration:none;line-height:normal;letter-spacing:normal;word-spacing:normal;text-transform:none;direction:ltr;block-progression:tb;writing-mode:lr-tb;text-anchor:start;baseline-shift:baseline;color:#000000;fill:none;fill-opacity:1;stroke:#ff0000;stroke-width:0.03543307000000000;marker:none;visibility:visible;display:inline;overflow:visible;enable-background:accumulate;font-family:Sans;-inkscape-font-specification:Sans;stroke-miterlimit:4;stroke-dasharray:none"
       d="m 790.95422,713.7509 0,0.5 0,20.75 -94.15625,0 0,1 94.65625,0 0.5,0 0,-0.5 0,-20.75 93.625,0 0,20.75 0,0.5 0.5,0 94.6875,0 0.5,0 0,-0.5 0,-20.75 93.62498,0 0,20.75 0,0.5 0.5,0 94.7188,0 0.5,0 0,-0.5 0,-20.75 93.5937,0 0,20.75 0,0.5 0.5,0 94.6875,0 0,-1 -94.1875,0 0,-20.75 0,-0.5 -0.5,0 -94.5937,0 -0.5,0 0,0.5 0,20.75 -93.7188,0 0,-20.75 0,-0.5 -0.5,0 -94.62498,0 -0.5,0 0,0.5 0,20.75 -93.6875,0 0,-20.75 0,-0.5 -0.5,0 -94.625,0 -0.5,0 z"
       id="path3264"
       inkscape:connector-curvature="0" />
    <path
       style="font-size:medium;font-style:normal;font-variant:normal;font-weight:normal;font-stretch:normal;text-indent:0;text-align:start;text-decoration:none;line-height:normal;letter-spacing:normal;word-spacing:normal;text-transform:none;direction:ltr;block-progression:tb;writing-mode:lr-tb;text-anchor:start;baseline-shift:baseline;color:#000000;fill:none;fill-opacity:1;stroke:#ff0000;stroke-width:0.03543307000000000;marker:none;visibility:visible;display:inline;overflow:visible;enable-background:accumulate;font-family:Sans;-inkscape-font-specification:Sans;stroke-miterlimit:4;stroke-dasharray:none"
       d="m 696.29797,72.907147 0,94.687503 0,0.5 0.5,0 20.75,0 0,93.625 -20.75,0 -0.5,0 0,0.5 0,94.6875 0,0.5 0.5,0 20.75,0 0,93.625 -20.75,0 -0.5,0 0,0.5 0,94.6875 0,0.5 0.5,0 20.75,0 0,93.625 -20.75,0 -0.5,0 0,0.5 0,94.65625 1,0 0,-94.15625 20.75,0 0.5,0 0,-0.5 0,-94.625 0,-0.5 -0.5,0 -20.75,0 0,-93.6875 20.75,0 0.5,0 0,-0.5 0,-94.625 0,-0.5 -0.5,0 -20.75,0 0,-93.6875 20.75,0 0.5,0 0,-0.5 0,-94.625 0,-0.5 -0.5,0 -20.75,0 0,-94.187503 -1,0 z"
       id="path3266"
       inkscape:connector-curvature="0" />
    <path
       style="font-size:medium;font-style:normal;font-variant:normal;font-weight:normal;font-stretch:normal;text-indent:0;text-align:start;text-decoration:none;line-height:normal;letter-spacing:normal;word-spacing:normal;text-transform:none;direction:ltr;block-progression:tb;writing-mode:lr-tb;text-anchor:start;baseline-shift:baseline;color:#000000;fill:none;fill-opacity:1;stroke:#ff0000;stroke-width:0.03543307000000000;marker:none;visibility:visible;display:inline;overflow:visible;enable-background:accumulate;font-family:Sans;-inkscape-font-specification:Sans;stroke-miterlimit:4;stroke-dasharray:none"
       d="m 1384.2042,72.407147 0,1 110.5313,0 0,20.78125 0,0.5 0.5,0 132.25,0 0.5,0 0,-0.5 0,-20.78125 110.5312,0 0,-1 -111.0312,0 -0.5,0 0,0.5 0,20.78125 -131.25,0 0,-20.78125 0,-0.5 -0.5,0 -111.0313,0 z"
       id="path3268"
       inkscape:connector-curvature="0" />
    <path
       style="font-size:medium;font-style:normal;font-variant:normal;font-weight:normal;font-stretch:normal;text-indent:0;text-align:start;text-decoration:none;line-height:normal;letter-spacing:normal;word-spacing:normal;text-transform:none;direction:ltr;block-progression:tb;writing-mode:lr-tb;text-anchor:start;baseline-shift:baseline;color:#000000;fill:none;fill-opacity:1;stroke:#ff0000;stroke-width:0.03543307000000000;marker:none;visibility:visible;display:inline;overflow:visible;enable-background:accumulate;font-family:Sans;-inkscape-font-specification:Sans;stroke-miterlimit:4;stroke-dasharray:none"
       d="m 1738.0167,72.907147 0,94.656253 0,0.5 0.5,0 20.7812,0 0,93.6875 -20.7812,0 -0.5,0 0,0.5 0,94.625 0,0.5 0.5,0 20.7812,0 0,93.6875 -20.7812,0 -0.5,0 0,0.5 0,94.625 0,0.5 0.5,0 20.7812,0 0,93.6875 -20.7812,0 -0.5,0 0,0.5 0,94.625 1,0 0,-94.125 20.7812,0 0.5,0 0,-0.5 0,-94.6875 0,-0.5 -0.5,0 -20.7812,0 0,-93.625 20.7812,0 0.5,0 0,-0.5 0,-94.6875 0,-0.5 -0.5,0 -20.7812,0 0,-93.625 20.7812,0 0.5,0 0,-0.5 0,-94.6875 0,-0.5 -0.5,0 -20.7812,0 0,-94.156253 -1,0 z"
       id="path3270"
       inkscape:connector-curvature="0" />
    <path
       style="font-size:medium;font-style:normal;font-variant:normal;font-weight:normal;font-stretch:normal;text-indent:0;text-align:start;text-decoration:none;line-height:normal;letter-spacing:normal;word-spacing:normal;text-transform:none;direction:ltr;block-progression:tb;writing-mode:lr-tb;text-anchor:start;baseline-shift:baseline;color:#000000;fill:none;fill-opacity:1;stroke:#ff0000;stroke-width:0.03543307000000000;marker:none;visibility:visible;display:inline;overflow:visible;enable-background:accumulate;font-family:Sans;-inkscape-font-specification:Sans;stroke-miterlimit:4;stroke-dasharray:none"
       d="m 1494.7355,713.7509 0,0.5 0,20.75 -110.5313,0 0,1 111.0313,0 0.5,0 0,-0.5 0,-20.75 131.25,0 0,20.75 0,0.5 0.5,0 111.0312,0 0,-1 -110.5312,0 0,-20.75 0,-0.5 -0.5,0 -132.25,0 -0.5,0 z"
       id="path3272"
       inkscape:connector-curvature="0" />
    <path
       style="font-size:medium;font-style:normal;font-variant:normal;font-weight:normal;font-stretch:normal;text-indent:0;text-align:start;text-decoration:none;line-height:normal;letter-spacing:normal;word-spacing:normal;text-transform:none;direction:ltr;block-progression:tb;writing-mode:lr-tb;text-anchor:start;baseline-shift:baseline;color:#000000;fill:none;fill-opacity:1;stroke:#ff0000;stroke-width:0.03543307000000000;marker:none;visibility:visible;display:inline;overflow:visible;enable-background:accumulate;font-family:Sans;-inkscape-font-specification:Sans;stroke-miterlimit:4;stroke-dasharray:none"
       d="m 1383.7042,72.907147 0,94.156253 -20.7813,0 -0.5,0 0,0.5 0,94.6875 0,0.5 0.5,0 20.7813,0 0,93.625 -20.7813,0 -0.5,0 0,0.5 0,94.6875 0,0.5 0.5,0 20.7813,0 0,93.625 -20.7813,0 -0.5,0 0,0.5 0,94.6875 0,0.5 0.5,0 20.7813,0 0,94.125 1,0 0,-94.625 0,-0.5 -0.5,0 -20.7813,0 0,-93.6875 20.7813,0 0.5,0 0,-0.5 0,-94.625 0,-0.5 -0.5,0 -20.7813,0 0,-93.6875 20.7813,0 0.5,0 0,-0.5 0,-94.625 0,-0.5 -0.5,0 -20.7813,0 0,-93.6875 20.7813,0 0.5,0 0,-0.5 0,-94.656253 -1,0 z"
       id="path3274"
       inkscape:connector-curvature="0" />
    <g
       id="g3336"
       transform="matrix(0,1,-1,0,2162.043,816.3376)"
       style="stroke:#ff0000;stroke-width:0.03543307000000000;stroke-miterlimit:4;stroke-dasharray:none;display:inline;fill:none">
      <path
         inkscape:connector-curvature="0"
         id="path3282"
         style="fill:none;stroke:#ff0000;stroke-width:0.03543307000000000;stroke-miterlimit:4;stroke-dasharray:none"
         d="m 362.62939,2113.0825 0,-94.6392 -21.25984,0 0,-94.6923 21.25984,0 0,-94.6215 -21.25984,0 0,-94.6924 21.25984,0 0,-94.6214 -21.25984,0 0,-94.6924 21.25984,0 0,-94.6392 m 354.33071,662.5984 -111.04134,0 0,-21.2598 -132.24803,0 0,21.2598 -111.04134,0 m 354.33071,-662.5984 0,94.6392 21.25984,0 0,94.6924 -21.25984,0 0,94.6214 21.25984,0 0,94.6924 -21.25984,0 0,94.6215 21.25984,0 0,94.6923 -21.25984,0 0,94.6392 m -354.33071,-662.5984 111.04134,0 0,21.2598 132.24803,0 0,-21.2598 111.04134,0" />
    </g>
    <path
       style="font-size:medium;font-style:normal;font-variant:normal;font-weight:normal;font-stretch:normal;text-indent:0;text-align:start;text-decoration:none;line-height:normal;letter-spacing:normal;word-spacing:normal;text-transform:none;direction:ltr;block-progression:tb;writing-mode:lr-tb;text-anchor:start;baseline-shift:baseline;color:#000000;fill:none;fill-opacity:1;stroke:#ff0000;stroke-width:0.03543307000000000;marker:none;visibility:visible;display:inline;overflow:visible;enable-background:accumulate;font-family:Sans;-inkscape-font-specification:Sans;stroke-miterlimit:4;stroke-dasharray:none"
       d="m 124.39172,738.9384 0,0.5 0,20.78125 -72.875001,0 0,1 73.375001,0 0.5,0 0,-0.5 0,-20.78125 93.6875,0 0,20.78125 0,0.5 0.5,0 94.625,0 0.5,0 0,-0.5 0,-20.78125 93.6875,0 0,20.78125 0,0.5 0.5,0 94.625,0 0.5,0 0,-0.5 0,-20.78125 93.6875,0 0,20.78125 0,0.5 0.5,0 73.375,0 0,-1 -72.875,0 0,-20.78125 0,-0.5 -0.5,0 -94.6875,0 -0.5,0 0,0.5 0,20.78125 -93.625,0 0,-20.78125 0,-0.5 -0.5,0 -94.6875,0 -0.5,0 0,0.5 0,20.78125 -93.625,0 0,-20.78125 0,-0.5 -0.5,0 -94.6875,0 -0.5,0 z"
       id="path3284"
       inkscape:connector-curvature="0" />
    <path
       style="font-size:medium;font-style:normal;font-variant:normal;font-weight:normal;font-stretch:normal;text-indent:0;text-align:start;text-decoration:none;line-height:normal;letter-spacing:normal;word-spacing:normal;text-transform:none;direction:ltr;block-progression:tb;writing-mode:lr-tb;text-anchor:start;baseline-shift:baseline;color:#000000;fill:none;fill-opacity:1;stroke:#ff0000;stroke-width:0.03543307000000000;marker:none;visibility:visible;display:inline;overflow:visible;enable-background:accumulate;font-family:Sans;-inkscape-font-specification:Sans;stroke-miterlimit:4;stroke-dasharray:none"
       d="m 671.07922,760.71965 0,111 0,0.5 0.5,0 20.78125,0 0,131.31245 -20.78125,0 -0.5,0 0,0.5 0,111 1,0 0,-110.5 20.78125,0 0.5,0 0,-0.5 0,-132.31245 0,-0.5 -0.5,0 -20.78125,0 0,-110.5 -1,0 z"
       id="path3286"
       inkscape:connector-curvature="0" />
    <path
       style="font-size:medium;font-style:normal;font-variant:normal;font-weight:normal;font-stretch:normal;text-indent:0;text-align:start;text-decoration:none;line-height:normal;letter-spacing:normal;word-spacing:normal;text-transform:none;direction:ltr;block-progression:tb;writing-mode:lr-tb;text-anchor:start;baseline-shift:baseline;color:#000000;fill:none;fill-opacity:1;stroke:#ff0000;stroke-width:0.03543307000000000;marker:none;visibility:visible;display:inline;overflow:visible;enable-background:accumulate;font-family:Sans;-inkscape-font-specification:Sans;stroke-miterlimit:4;stroke-dasharray:none"
       d="m 51.516719,1114.5321 0,1 72.875001,0 0,20.75 0,0.5 0.5,0 94.6875,0 0.5,0 0,-0.5 0,-20.75 93.625,0 0,20.75 0,0.5 0.5,0 94.6875,0 0.5,0 0,-0.5 0,-20.75 93.625,0 0,20.75 0,0.5 0.5,0 94.6875,0 0.5,0 0,-0.5 0,-20.75 72.875,0 0,-1 -73.375,0 -0.5,0 0,0.5 0,20.75 -93.6875,0 0,-20.75 0,-0.5 -0.5,0 -94.625,0 -0.5,0 0,0.5 0,20.75 -93.6875,0 0,-20.75 0,-0.5 -0.5,0 -94.625,0 -0.5,0 0,0.5 0,20.75 -93.6875,0 0,-20.75 0,-0.5 -0.5,0 -73.375001,0 z"
       id="path3288"
       inkscape:connector-curvature="0" />
    <path
       style="font-size:medium;font-style:normal;font-variant:normal;font-weight:normal;font-stretch:normal;text-indent:0;text-align:start;text-decoration:none;line-height:normal;letter-spacing:normal;word-spacing:normal;text-transform:none;direction:ltr;block-progression:tb;writing-mode:lr-tb;text-anchor:start;baseline-shift:baseline;color:#000000;fill:none;fill-opacity:1;stroke:#ff0000;stroke-width:0.03543307000000000;marker:none;visibility:visible;display:inline;overflow:visible;enable-background:accumulate;font-family:Sans;-inkscape-font-specification:Sans;stroke-miterlimit:4;stroke-dasharray:none"
       d="m 51.016719,760.71965 0,110.5 -20.78125,0 -0.5,0 0,0.5 0,132.31245 0,0.5 0.5,0 20.78125,0 0,110.5 1,0 0,-111 0,-0.5 -0.5,0 -20.78125,0 0,-131.31245 20.78125,0 0.5,0 0,-0.5 0,-111 -1,0 z"
       id="path3290"
       inkscape:connector-curvature="0" />
    <path
       style="font-size:medium;font-style:normal;font-variant:normal;font-weight:normal;font-stretch:normal;text-indent:0;text-align:start;text-decoration:none;line-height:normal;letter-spacing:normal;word-spacing:normal;text-transform:none;direction:ltr;block-progression:tb;writing-mode:lr-tb;text-anchor:start;baseline-shift:baseline;color:#000000;fill:none;fill-opacity:1;stroke:#ff0000;stroke-width:0.03543307000000000;marker:none;visibility:visible;display:inline;overflow:visible;enable-background:accumulate;font-family:Sans;-inkscape-font-specification:Sans;stroke-miterlimit:4;stroke-dasharray:none"
       d="m 790.51672,738.9384 0,0.5 0,20.78125 -72.875,0 0,1 73.375,0 0.5,0 0,-0.5 0,-20.78125 93.71875,0 0,20.78125 0,0.5 0.5,0 94.625,0 0.5,0 0,-0.5 0,-20.78125 93.68743,0 0,20.78125 0,0.5 0.5,0 94.625,0 0.5,0 0,-0.5 0,-20.78125 93.6876,0 0,20.78125 0,0.5 0.5,0 73.375,0 0,-1 -72.875,0 0,-20.78125 0,-0.5 -0.5,0 -94.6876,0 -0.5,0 0,0.5 0,20.78125 -93.625,0 0,-20.78125 0,-0.5 -0.5,0 -94.68743,0 -0.5,0 0,0.5 0,20.78125 -93.625,0 0,-20.78125 0,-0.5 -0.5,0 -94.71875,0 -0.5,0 z"
       id="path3292"
       inkscape:connector-curvature="0" />
    <path
       style="font-size:medium;font-style:normal;font-variant:normal;font-weight:normal;font-stretch:normal;text-indent:0;text-align:start;text-decoration:none;line-height:normal;letter-spacing:normal;word-spacing:normal;text-transform:none;direction:ltr;block-progression:tb;writing-mode:lr-tb;text-anchor:start;baseline-shift:baseline;color:#000000;fill:none;fill-opacity:1;stroke:#ff0000;stroke-width:0.03543307000000000;marker:none;visibility:visible;display:inline;overflow:visible;enable-background:accumulate;font-family:Sans;-inkscape-font-specification:Sans;stroke-miterlimit:4;stroke-dasharray:none"
       d="m 1337.2355,760.71965 0,111 0,0.5 0.5,0 20.75,0 0,131.31245 -20.75,0 -0.5,0 0,0.5 0,111 1,0 0,-110.5 20.75,0 0.5,0 0,-0.5 0,-132.31245 0,-0.5 -0.5,0 -20.75,0 0,-110.5 -1,0 z"
       id="path3294"
       inkscape:connector-curvature="0" />
    <path
       style="font-size:medium;font-style:normal;font-variant:normal;font-weight:normal;font-stretch:normal;text-indent:0;text-align:start;text-decoration:none;line-height:normal;letter-spacing:normal;word-spacing:normal;text-transform:none;direction:ltr;block-progression:tb;writing-mode:lr-tb;text-anchor:start;baseline-shift:baseline;color:#000000;fill:none;fill-opacity:1;stroke:#ff0000;stroke-width:0.03543307000000000;marker:none;visibility:visible;display:inline;overflow:visible;enable-background:accumulate;font-family:Sans;-inkscape-font-specification:Sans;stroke-miterlimit:4;stroke-dasharray:none"
       d="m 717.64172,1114.5321 0,1 72.875,0 0,20.75 0,0.5 0.5,0 94.71875,0 0.5,0 0,-0.5 0,-20.75 93.625,0 0,20.75 0,0.5 0.5,0 94.68743,0 0.5,0 0,-0.5 0,-20.75 93.625,0 0,20.75 0,0.5 0.5,0 94.6876,0 0.5,0 0,-0.5 0,-20.75 72.875,0 0,-1 -73.375,0 -0.5,0 0,0.5 0,20.75 -93.6876,0 0,-20.75 0,-0.5 -0.5,0 -94.625,0 -0.5,0 0,0.5 0,20.75 -93.68743,0 0,-20.75 0,-0.5 -0.5,0 -94.625,0 -0.5,0 0,0.5 0,20.75 -93.71875,0 0,-20.75 0,-0.5 -0.5,0 -73.375,0 z"
       id="path3296"
       inkscape:connector-curvature="0" />
    <path
       style="font-size:medium;font-style:normal;font-variant:normal;font-weight:normal;font-stretch:normal;text-indent:0;text-align:start;text-decoration:none;line-height:normal;letter-spacing:normal;word-spacing:normal;text-transform:none;direction:ltr;block-progression:tb;writing-mode:lr-tb;text-anchor:start;baseline-shift:baseline;color:#000000;fill:none;fill-opacity:1;stroke:#ff0000;stroke-width:0.03543307000000000;marker:none;visibility:visible;display:inline;overflow:visible;enable-background:accumulate;font-family:Sans;-inkscape-font-specification:Sans;stroke-miterlimit:4;stroke-dasharray:none"
       d="m 717.14172,760.71965 0,110.5 -20.75,0 -0.5,0 0,0.5 0,132.31245 0,0.5 0.5,0 20.75,0 0,110.5 1,0 0,-111 0,-0.5 -0.5,0 -20.75,0 0,-131.31245 20.75,0 0.5,0 0,-0.5 0,-111 -1,0 z"
       id="path3298"
       inkscape:connector-curvature="0" />
    <path
       style="font-size:medium;font-style:normal;font-variant:normal;font-weight:normal;font-stretch:normal;text-indent:0;text-align:start;text-decoration:none;line-height:normal;letter-spacing:normal;word-spacing:normal;text-transform:none;direction:ltr;block-progression:tb;writing-mode:lr-tb;text-anchor:start;baseline-shift:baseline;color:#000000;fill:none;fill-opacity:1;stroke:#ff0000;stroke-width:0.03543307000000000;marker:none;visibility:visible;display:inline;overflow:visible;enable-background:accumulate;font-family:Sans;-inkscape-font-specification:Sans;stroke-miterlimit:4;stroke-dasharray:none"
       d="m 364.61601,283.13887 c -4.09946,0 -7.43328,3.33381 -7.43328,7.43328 0,4.09946 3.33382,7.41465 7.43328,7.41465 4.09947,0 7.41465,-3.31519 7.41465,-7.41465 0,-4.09947 -3.31518,-7.43328 -7.41465,-7.43328 z m 0,0.20493 c 3.98531,0 7.20972,3.24305 7.20972,7.22835 0,3.9853 -3.22441,7.20972 -7.20972,7.20972 -3.9853,0 -7.22835,-3.22442 -7.22835,-7.20972 0,-3.9853 3.24305,-7.22835 7.22835,-7.22835 z"
       id="path3203-1-4"
       inkscape:connector-curvature="0" />
    <path
       style="font-size:medium;font-style:normal;font-variant:normal;font-weight:normal;font-stretch:normal;text-indent:0;text-align:start;text-decoration:none;line-height:normal;letter-spacing:normal;word-spacing:normal;text-transform:none;direction:ltr;block-progression:tb;writing-mode:lr-tb;text-anchor:start;baseline-shift:baseline;color:#000000;fill:none;fill-opacity:1;stroke:#ff0000;stroke-width:0.03543307000000000;marker:none;visibility:visible;display:inline;overflow:visible;enable-background:accumulate;font-family:Sans;-inkscape-font-specification:Sans;stroke-miterlimit:4;stroke-dasharray:none"
       d="m 1565.3605,530.6884 c -17.3305,0 -31.2813,13.98204 -31.2813,31.3125 l 0,63.625 c 0,17.33046 13.9508,31.28125 31.2813,31.28125 l 69.2187,0 c 17.3304,0 31.3125,-13.95079 31.3125,-31.28125 l 0,-63.625 c 0,-17.33046 -13.9821,-31.3125 -31.3125,-31.3125 l -69.2187,0 z m 0,0.375 69.2187,0 c 17.1424,0 30.9375,13.7951 30.9375,30.9375 l 0,63.625 c 0,17.1424 -13.7951,30.9375 -30.9375,30.9375 l -69.2187,0 c -17.1424,0 -30.9376,-13.7951 -30.9376,-30.9375 l 0,-63.625 c 0,-17.1424 13.7952,-30.9375 30.9376,-30.9375 z"
       id="rect3609"
       inkscape:connector-curvature="0" />
  </g>
  <g
     inkscape:groupmode="layer"
     id="layer4"
     inkscape:label="ENGRAVE"
     style="display:inline">
    <text
       sodipodi:linespacing="125%"
       id="text3225"
       y="148.19441"
       x="373.98828"
       style="font-size:32.61239624px;font-style:normal;font-weight:normal;line-height:125%;letter-spacing:0px;word-spacing:0px;fill:#0000ff;stroke:#0000ff;stroke-width:0.81530994;display:inline;font-family:Sans"
       xml:space="preserve"><tspan
         style="text-align:center;text-anchor:middle;fill:#0000ff;stroke:#0000ff;stroke-width:0.81530994"
         id="tspan3231"
         y="148.19441"
         x="373.98828"
         sodipodi:role="line">NOVA LABS INTERNET DOOR STATUS</tspan></text>
    <text
       xml:space="preserve"
       style="font-size:63.84420013px;font-style:normal;font-weight:normal;line-height:125%;letter-spacing:0px;word-spacing:0px;fill:#0000ff;fill-opacity:1;stroke:#0000ff;display:inline;font-family:Sans"
       x="242.29028"
       y="556.77423"
       id="text3464"
       sodipodi:linespacing="125%"><tspan
         sodipodi:role="line"
         id="tspan3466"
         x="242.29028"
         y="556.77423">CLOSED </tspan></text>
    <text
       xml:space="preserve"
       style="font-size:63.84420013px;font-style:normal;font-weight:normal;line-height:125%;letter-spacing:0px;word-spacing:0px;fill:#0000ff;fill-opacity:1;stroke:#0000ff;display:inline;font-family:Sans"
       x="282.29028"
       y="375.75491"
       id="text3464-0"
       sodipodi:linespacing="125%"><tspan
         sodipodi:role="line"
         id="tspan3466-9"
         x="282.29028"
         y="375.75491">OPEN </tspan></text>
    <g
       id="g2574"
       transform="matrix(0.24044885,0,0,-0.24044885,99.571148,387.14342)"
       style="fill:#0000ff;display:inline">
      <g
         id="g2576"
         clip-path="url(#clipPath2578-7-0-4)"
         style="fill:#0000ff">
        <g
           id="g2582"
           transform="translate(605.1592,461.8115)"
           style="fill:#0000ff">
          <path
             inkscape:connector-curvature="0"
             d="m 0,0 c 0.531,2.126 1.026,4.205 1.501,6.337 0.469,2.074 0.917,4.086 1.334,6.17 0.02,0.104 -0.021,0.223 0,0.333 0.812,4.112 1.561,8.216 2.168,12.342 0.625,4.205 1.083,8.459 1.5,12.672 L 74.541,63.535 71.707,106.393 0.833,122.9 c -0.937,3.978 -1.88,7.907 -3.001,11.84 -1.104,3.873 -2.387,7.691 -3.668,11.508 -2.56,7.661 -5.417,15.144 -8.672,22.513 l 46.526,55.865 0,0.166 -23.68,35.686 0,0.168 -69.705,-20.68 c -0.266,0.288 -0.569,0.549 -0.834,0.834 -11.358,12.168 -24.024,23.389 -37.855,33.352 l 12.007,71.874 -38.522,19.01 -49.861,-52.863 c -16.603,5.084 -33.518,8.351 -50.36,10.007 l -1.502,3.835 c -0.078,0.214 -0.088,0.453 -0.166,0.668 l 0,0.332 -11.34,30.017 -0.5,1.167 c -4.06,10.706 -8.127,21.338 -12.174,32.018 l -42.857,-2.835 -16.509,-70.872 c -15.701,-3.696 -31.111,-8.818 -45.859,-15.343 l -55.864,46.526 -36.02,-23.68 20.678,-69.705 c -6.243,-5.778 -12.301,-11.887 -18.01,-18.342 -2.854,-3.219 -5.631,-6.458 -8.338,-9.84 -0.026,-0.031 0.026,-0.133 0,-0.167 -2.705,-3.388 -5.287,-6.802 -7.838,-10.339 l -71.873,12.006 -19.011,-38.521 52.863,-49.862 c -1.102,-3.6 -2.063,-7.216 -3.001,-10.839 -0.402,-1.563 -0.798,-3.103 -1.168,-4.668 -0.68,-2.845 -1.42,-5.652 -2.001,-8.506 -0.088,-0.44 -0.081,-0.896 -0.167,-1.334 -0.815,-4.112 -1.56,-8.214 -2.167,-12.339 -0.621,-4.213 -1.085,-8.463 -1.502,-12.673 l -68.037,-25.683 2.835,-42.857 70.872,-16.508 c 0.926,-3.925 1.9,-7.791 3.002,-11.674 0.016,-0.051 -0.015,-0.114 0,-0.166 3.299,-11.591 7.468,-22.998 12.34,-34.019 l -46.526,-55.865 0,-0.166 23.68,-35.687 0,-0.166 69.706,20.677 57.277,53.92 c -29.66,32.299 -47.772,75.372 -47.772,122.679 0,100.2 81.23,181.434 181.434,181.434 100.204,0 181.434,-81.234 181.434,-181.434 0,-100.202 -81.23,-181.434 -181.434,-181.434 -5.413,0 -10.767,0.252 -16.06,0.715 l -9.454,-78.092 0,-0.166 c 4.091,-11.445 8.635,-23.118 13.008,-34.686 4.207,-11.105 8.475,-22.111 12.673,-33.185 l 42.857,2.834 16.509,70.873 c 15.693,3.715 31.098,8.807 45.859,15.342 l 55.864,-46.525 36.021,23.68 -20.678,69.704 c 3.149,2.913 6.136,5.92 9.171,9.005 5.956,6.091 11.785,12.434 17.177,19.177 0.025,0.037 -0.027,0.13 0,0.167 2.707,3.388 5.283,6.796 7.837,10.339 l 71.873,-12.006 19.011,38.521 -52.863,49.861 C -2.233,-8.354 -1.056,-4.185 0,0"
             style="fill:#0000ff;fill-opacity:1;fill-rule:nonzero;stroke:none"
             id="path2584" />
        </g>
        <g
           id="g2586"
           transform="translate(352.8525,698.6094)"
           style="fill:#0000ff">
          <path
             inkscape:connector-curvature="0"
             d="m 0,0 c -95.783,0 -173.43,-77.647 -173.43,-173.429 0,-45.234 17.325,-86.355 45.692,-117.232 l 20.895,19.759 c -23.131,25.37 -37.238,59.109 -37.238,96.143 0,78.84 63.912,142.746 142.747,142.746 78.837,0 142.746,-63.906 142.746,-142.746 0,-78.834 -63.909,-142.745 -142.746,-142.745 -3.458,0 -6.884,0.131 -10.279,0.372 l -3.563,-29.059 c 5.011,-0.439 10.053,-0.668 15.176,-0.668 95.782,0 173.43,77.648 173.43,173.43 C 173.43,-77.647 95.782,0 0,0"
             style="fill:#0000ff;fill-opacity:1;fill-rule:nonzero;stroke:none"
             id="path2588" />
        </g>
        <g
           id="g2590"
           transform="translate(178.0313,290.5176)"
           style="fill:#0000ff">
          <path
             inkscape:connector-curvature="0"
             d="m 0,0 -0.208,-0.391 c 0,0 0.093,0.158 0.208,0.391"
             style="fill:#0000ff;fill-opacity:1;fill-rule:nonzero;stroke:none"
             id="path2592" />
        </g>
        <g
           id="g2594"
           transform="translate(158.5669,257.4316)"
           style="fill:#0000ff">
          <path
             inkscape:connector-curvature="0"
             d="m 0,0 -0.201,-0.374 c 0,0 0.087,0.145 0.201,0.374"
             style="fill:#0000ff;fill-opacity:1;fill-rule:nonzero;stroke:none"
             id="path2596" />
        </g>
        <g
           id="g2598"
           transform="translate(142.0923,223.9551)"
           style="fill:#0000ff">
          <path
             inkscape:connector-curvature="0"
             d="m 0,0 -0.206,-0.391 c 0,0 0.094,0.158 0.206,0.391"
             style="fill:#0000ff;fill-opacity:1;fill-rule:nonzero;stroke:none"
             id="path2600" />
        </g>
        <g
           id="g2602"
           transform="translate(121.9219,189.5879)"
           style="fill:#0000ff">
          <path
             inkscape:connector-curvature="0"
             d="m 0,0 -0.201,-0.382 c 0,0 0.086,0.152 0.201,0.382"
             style="fill:#0000ff;fill-opacity:1;fill-rule:nonzero;stroke:none"
             id="path2604" />
        </g>
        <g
           id="g2606"
           transform="translate(187.6226,159.5605)"
           style="fill:#0000ff">
          <path
             inkscape:connector-curvature="0"
             d="M 0,0 -28.148,14.08 -36.327,-2.272 -8.179,-16.354 0,0 z"
             style="fill:#0000ff;fill-opacity:1;fill-rule:nonzero;stroke:none"
             id="path2608" />
        </g>
        <g
           id="g2610"
           transform="translate(302.6421,269.8975)"
           style="fill:#0000ff">
          <path
             inkscape:connector-curvature="0"
             d="m 0,0 c -8.62,11.814 -7.259,14.472 -7.259,14.472 l -1.486,-2.565 c -4.291,-0.385 -16.657,3.925 -52.797,18.625 -66.391,26.969 -54.184,11.83 -66.951,10.538 l -2.395,-4.439 c 8.492,-9.558 6.931,-14.692 6.277,-16.011 l 2.069,3.841 c 5.136,1.174 27.802,-8.343 56.172,-20.125 46.338,-19.204 53.769,-12.413 62.886,-10.203 0.227,0.046 0.362,0.094 0.362,0.094 L 0,0 z"
             style="fill:#0000ff;fill-opacity:1;fill-rule:nonzero;stroke:none"
             id="path2612" />
        </g>
        <g
           id="g2614"
           transform="translate(275.9243,251.2939)"
           style="fill:#0000ff">
          <path
             inkscape:connector-curvature="0"
             d="m 0,0 -1.501,-2.59 c -4.289,-0.387 -16.637,3.923 -52.798,18.604 -66.375,27 -54.183,11.861 -66.943,10.568 l -2.395,-4.439 c 8.505,-9.6 6.923,-14.707 6.277,-16.005 l 2.074,3.815 c 5.131,1.183 27.802,-8.333 56.159,-20.099 46.338,-19.208 53.79,-12.424 62.895,-10.2 0.226,0.048 0.359,0.095 0.359,0.095 l 3.122,5.769 C -1.347,-2.663 0,0 0,0"
             style="fill:#0000ff;fill-opacity:1;fill-rule:nonzero;stroke:none"
             id="path2616" />
        </g>
        <g
           id="g2618"
           transform="translate(259.436,217.8213)"
           style="fill:#0000ff">
          <path
             inkscape:connector-curvature="0"
             d="m 0,0 -1.48,-2.584 c -4.297,-0.396 -16.655,3.924 -52.803,18.615 -66.391,26.952 -54.189,11.849 -66.944,10.547 l -2.402,-4.44 c 8.479,-9.557 6.939,-14.675 6.285,-16.004 l 2.061,3.837 c 5.136,1.172 27.802,-8.355 56.172,-20.122 46.364,-19.229 53.795,-12.418 62.915,-10.193 0.211,0.052 0.339,0.094 0.339,0.094 l 3.116,5.747 C -1.339,-2.678 0,0 0,0"
             style="fill:#0000ff;fill-opacity:1;fill-rule:nonzero;stroke:none"
             id="path2620" />
        </g>
        <g
           id="g2622"
           transform="translate(239.2788,183.4482)"
           style="fill:#0000ff">
          <path
             inkscape:connector-curvature="0"
             d="m 0,0 -1.496,-2.579 c -4.281,-0.386 -16.634,3.925 -52.782,18.61 -66.396,26.978 -54.183,11.84 -66.951,10.547 l -2.4,-4.435 c 8.505,-9.594 6.923,-14.701 6.27,-16.003 l 2.082,3.824 c 5.135,1.173 27.801,-8.348 56.164,-20.105 46.319,-19.188 53.769,-12.434 62.881,-10.213 0.239,0.051 0.375,0.099 0.375,0.099 l 3.121,5.763 C -1.347,-2.668 0,0 0,0"
             style="fill:#0000ff;fill-opacity:1;fill-rule:nonzero;stroke:none"
             id="path2624" />
        </g>
        <g
           id="g2626"
           transform="translate(355.6299,495.3564)"
           style="fill:#0000ff">
          <path
             inkscape:connector-curvature="0"
             d="m 0,0 -28.135,14.088 -96.442,-192.765 28.136,-14.076 L 0,0 z"
             style="fill:#0000ff;fill-opacity:1;fill-rule:nonzero;stroke:none"
             id="path2628" />
        </g>
      </g>
    </g>
  </g>
</svg>
