<?xml version="1.0" encoding="UTF-8" standalone="no"?>
<!-- Created with Inkscape (http://www.inkscape.org/) -->

<svg
   xmlns:dc="http://purl.org/dc/elements/1.1/"
   xmlns:cc="http://creativecommons.org/ns#"
   xmlns:rdf="http://www.w3.org/1999/02/22-rdf-syntax-ns#"
   xmlns:svg="http://www.w3.org/2000/svg"
   xmlns="http://www.w3.org/2000/svg"
   xmlns:sodipodi="http://sodipodi.sourceforge.net/DTD/sodipodi-0.dtd"
   xmlns:inkscape="http://www.inkscape.org/namespaces/inkscape"
   width="3543.3069"
   height="1771.6534"
   id="svg2"
   version="1.1"
   inkscape:version="0.48.2 r9819"
   sodipodi:docname="NovaLabsDoorSwitchBoxV2.dxf">
  <sodipodi:namedview
     id="base"
     pagecolor="#ffffff"
     bordercolor="#666666"
     borderopacity="1.0"
     inkscape:pageopacity="0.0"
     inkscape:pageshadow="2"
     inkscape:zoom="1.0327829"
     inkscape:cx="444.61633"
     inkscape:cy="713.49781"
     inkscape:document-units="px"
     inkscape:current-layer="text3552"
     showgrid="false"
     units="m"
     inkscape:window-width="1600"
     inkscape:window-height="1153"
     inkscape:window-x="-4"
     inkscape:window-y="-4"
     inkscape:window-maximized="1" />
  <defs
     id="defs4">
    <clipPath
       id="clipPath2578-7-0-4"
       clipPathUnits="userSpaceOnUse">
      <path
         inkscape:connector-curvature="0"
         id="path2580-4-9-8"
         d="M 0,900 1800,900 1800,0 0,0 0,900 z" />
    </clipPath>
    <clipPath
       id="clipPath2578-7-0"
       clipPathUnits="userSpaceOnUse">
      <path
         inkscape:connector-curvature="0"
         id="path2580-4-9"
         d="M 0,900 1800,900 1800,0 0,0 0,900 z" />
    </clipPath>
    <clipPath
       id="clipPath2578-7"
       clipPathUnits="userSpaceOnUse">
      <path
         inkscape:connector-curvature="0"
         id="path2580-4"
         d="M 0,900 1800,900 1800,0 0,0 0,900 z" />
    </clipPath>
    <marker
       inkscape:stockid="Arrow1Lstart"
       orient="auto"
       refY="0.0"
       refX="0.0"
       id="Arrow1Lstart"
       style="overflow:visible">
      <path
         id="path4852"
         d="M 0.0,0.0 L 5.0,-5.0 L -12.5,0.0 L 5.0,5.0 L 0.0,0.0 z "
         style="fill-rule:evenodd;stroke:#000000;stroke-width:1.0pt;marker-start:none"
         transform="scale(0.8) translate(12.5,0)" />
    </marker>
    <marker
       inkscape:stockid="Arrow1Lend"
       orient="auto"
       refY="0.0"
       refX="0.0"
       id="Arrow1Lend"
       style="overflow:visible;">
      <path
         id="path4855"
         d="M 0.0,0.0 L 5.0,-5.0 L -12.5,0.0 L 5.0,5.0 L 0.0,0.0 z "
         style="fill-rule:evenodd;stroke:#000000;stroke-width:1.0pt;marker-start:none;"
         transform="scale(0.8) rotate(180) translate(12.5,0)" />
    </marker>
    <clipPath
       id="clipPath2578-7-0-4-9"
       clipPathUnits="userSpaceOnUse">
      <path
         inkscape:connector-curvature="0"
         id="path2580-4-9-8-4"
         d="M 0,900 1800,900 1800,0 0,0 0,900 z" />
    </clipPath>
    <clipPath
       id="clipPath2578-7-0-4-9-8"
       clipPathUnits="userSpaceOnUse">
      <path
         inkscape:connector-curvature="0"
         id="path2580-4-9-8-4-8"
         d="M 0,900 1800,900 1800,0 0,0 0,900 z" />
    </clipPath>
  </defs>
  <metadata
     id="metadata7">
    <rdf:RDF>
      <cc:Work
         rdf:about="">
        <dc:format>image/svg+xml</dc:format>
        <dc:type
           rdf:resource="http://purl.org/dc/dcmitype/StillImage" />
        <dc:title></dc:title>
      </cc:Work>
    </rdf:RDF>
  </metadata>
  <g
     style="display:inline"
     inkscape:label="engrave"
     inkscape:groupmode="layer"
     id="layer1"
     transform="translate(0,719.29145)">
    <text
       transform="translate(0,-719.29145)"
       sodipodi:linespacing="125%"
       id="text3568"
       y="834.73694"
       x="-117.11456"
       style="font-size:40px;font-style:normal;font-weight:normal;line-height:125%;letter-spacing:0px;word-spacing:0px;fill:#000000;fill-opacity:1;stroke:none;font-family:Bitstream Vera Sans"
       xml:space="preserve"><tspan
         y="834.73694"
         x="-117.11456"
         id="tspan3570"
         sodipodi:role="line">  </tspan></text>
    <g
       style="font-size:49.23717880000000200px;font-style:normal;font-weight:normal;line-height:125%;letter-spacing:0px;word-spacing:0px;fill:none;stroke:#808080;stroke-width:0.77120834999999999;display:inline;font-family:Sans"
       id="text3464">
      <path
         d="m 297.48801,447.31074 4.66407,1.17804 c -0.97773,3.83064 -2.73677,6.75169 -5.27713,8.76316 -2.54042,2.01148 -5.64579,3.01722 -9.31612,3.01722 -3.79859,0 -6.88793,-0.77334 -9.26803,-2.32001 -2.38013,-1.54667 -4.19126,-3.78655 -5.4334,-6.71963 -1.24216,-2.93306 -1.86323,-6.08251 -1.86323,-9.44834 0,-3.67033 0.70121,-6.87187 2.10364,-9.60462 1.40242,-2.7327 3.39787,-4.80828 5.98636,-6.22677 2.58846,-1.41842 5.43739,-2.12765 8.54678,-2.12768 3.52608,3e-5 6.49121,0.89759 8.89539,2.69266 2.40413,1.79513 4.07903,4.3195 5.0247,7.5731 l -4.59195,1.08187 c -0.81744,-2.56441 -2.00349,-4.43164 -3.55815,-5.60169 -1.55472,-1.16999 -3.5101,-1.75501 -5.86615,-1.75504 -2.7087,3e-5 -4.97262,0.64916 -6.79175,1.94737 -1.81916,1.29828 -3.09737,3.04129 -3.83464,5.22905 -0.73728,2.18781 -1.10592,4.44371 -1.10591,6.76771 -10e-6,2.9972 0.43675,5.61372 1.31027,7.84958 0.8735,2.23587 2.23185,3.90676 4.07505,5.01267 1.84317,1.10591 3.83862,1.65887 5.98635,1.65887 2.6125,0 4.82433,-0.7533 6.63548,-2.25991 1.81111,-1.5066 3.03723,-3.74247 3.67837,-6.70761 z"
         style="fill:none;stroke:#808080"
         id="path3925"
         inkscape:connector-curvature="0" />
      <path
         d="m 307.72972,459.66812 0,-35.24497 4.66407,0 0,31.08578 17.35803,0 0,4.15919 z"
         style="fill:none;stroke:#808080"
         id="path3927"
         inkscape:connector-curvature="0" />
      <path
         d="m 333.91102,442.50243 c -1e-5,-5.8501 1.57071,-10.43002 4.71215,-13.73977 3.14142,-3.3097 7.19643,-4.96456 12.16504,-4.96459 3.25361,3e-5 6.18668,0.77738 8.79923,2.33203 2.61248,1.55472 4.60393,3.72247 5.97433,6.50325 1.37034,2.78084 2.05552,5.93429 2.05556,9.46037 -4e-5,3.5742 -0.72129,6.77172 -2.16375,9.59259 -1.44252,2.82089 -3.48606,4.95658 -6.1306,6.40709 -2.6446,1.45051 -5.49753,2.17576 -8.55881,2.17576 -3.31775,0 -6.28288,-0.80139 -8.89539,-2.40416 -2.61252,-1.60277 -4.59195,-3.79055 -5.93827,-6.56335 -1.34633,-2.77279 -2.0195,-5.70586 -2.01949,-8.79922 z m 4.80831,0.0721 c 0,4.24736 1.14197,7.59315 3.42593,10.03736 2.28394,2.44424 5.14889,3.66635 8.59487,3.66635 3.51005,0 6.39905,-1.23413 8.66699,-3.70241 2.2679,-2.46826 3.40186,-5.97031 3.40189,-10.50617 -3e-5,-2.86895 -0.48487,-5.37328 -1.45452,-7.513 -0.9697,-2.13968 -2.38816,-3.79854 -4.25536,-4.97661 -1.86725,-1.17801 -3.96288,-1.76703 -6.28687,-1.76706 -3.30173,3e-5 -6.14264,1.134 -8.52275,3.40189 -2.38012,2.26795 -3.57018,6.05449 -3.57018,11.35965 z"
         style="fill:none;stroke:#808080"
         id="path3929"
         inkscape:connector-curvature="0" />
      <path
         d="m 372.01694,448.34453 4.39961,-0.38466 c 0.20836,1.76306 0.69319,3.20956 1.45452,4.3395 0.76131,1.12996 1.94335,2.04354 3.54613,2.74075 1.60276,0.69721 3.40588,1.04581 5.40936,1.0458 1.77906,1e-5 3.34978,-0.26445 4.71215,-0.79337 1.36234,-0.52891 2.37609,-1.25416 3.04126,-2.17576 0.66513,-0.92159 0.9977,-1.92733 0.99773,-3.01722 -3e-5,-1.1059 -0.32058,-2.07157 -0.96166,-2.89701 -0.64114,-0.82542 -1.69897,-1.51862 -3.17349,-2.0796 -0.94566,-0.36862 -3.03728,-0.94161 -6.27486,-1.71898 -3.23761,-0.77732 -5.50553,-1.51059 -6.80377,-2.1998 -1.68292,-0.88151 -2.93709,-1.9754 -3.76251,-3.28168 -0.82543,-1.30623 -1.23814,-2.76876 -1.23814,-4.38759 0,-1.77905 0.50487,-3.44192 1.51462,-4.98863 1.00974,-1.54664 2.48429,-2.72067 4.42365,-3.52209 1.93935,-0.80135 4.09507,-1.20205 6.46719,-1.20208 2.6125,3e-5 4.91649,0.42076 6.91196,1.26218 1.99543,0.84149 3.53008,2.07963 4.60396,3.71443 1.07383,1.63486 1.65083,3.48606 1.731,5.55361 l -4.47174,0.33658 c -0.24044,-2.22783 -1.05384,-3.91074 -2.44022,-5.04874 -1.38642,-1.13793 -3.43396,-1.70692 -6.14263,-1.70695 -2.82089,3e-5 -4.87644,0.51693 -6.16666,1.55068 -1.29024,1.03382 -1.93536,2.27998 -1.93535,3.73847 -1e-5,1.26622 0.45678,2.30802 1.37037,3.12541 0.89754,0.81743 3.24159,1.65488 7.03216,2.51234 3.79054,0.85751 6.39104,1.6068 7.8015,2.24789 2.05152,0.94566 3.56614,2.14373 4.54386,3.59422 0.97766,1.45052 1.46651,3.12141 1.46654,5.01267 -3e-5,1.87525 -0.53696,3.64231 -1.61079,5.30117 -1.07388,1.65888 -2.61655,2.94911 -4.628,3.8707 -2.01151,0.92159 -4.27542,1.38239 -6.79175,1.38239 -3.18954,0 -5.86216,-0.4648 -8.01788,-1.39441 -2.15573,-0.92961 -3.84665,-2.32803 -5.07277,-4.19526 -1.22612,-1.86722 -1.87124,-3.97887 -1.93535,-6.33496 z"
         style="fill:none;stroke:#808080"
         id="path3931"
         inkscape:connector-curvature="0" />
      <path
         d="m 406.58874,459.66812 0,-35.24497 25.48408,0 0,4.15919 -20.82001,0 0,10.79468 19.49773,0 0,4.13515 -19.49773,0 0,11.99676 21.63743,0 0,4.15919 z"
         style="fill:none;stroke:#808080"
         id="path3933"
         inkscape:connector-curvature="0" />
      <path
         d="m 439.38147,459.66812 0,-35.24497 12.14101,0 c 2.74072,3e-5 4.83234,0.16832 6.27485,0.50487 2.01947,0.46484 3.74245,1.3063 5.16894,2.52437 1.85919,1.57075 3.24959,3.57822 4.17122,6.02242 0.92156,2.44425 1.38236,5.23708 1.38239,8.37849 -3e-5,2.67665 -0.31257,5.04875 -0.93762,7.11631 -0.62511,2.06759 -1.4265,3.77855 -2.40416,5.13288 -0.97772,1.35435 -2.04757,2.42019 -3.20955,3.19753 -1.16204,0.77735 -2.56446,1.36637 -4.20728,1.76706 -1.64286,0.40069 -3.53013,0.60104 -5.6618,0.60104 z m 4.66407,-4.15919 7.52502,0 c 2.324,0 4.14715,-0.21637 5.46946,-0.64913 1.32227,-0.43274 2.37609,-1.04179 3.16147,-1.82716 1.10589,-1.1059 1.96738,-2.59247 2.58447,-4.45971 0.61704,-1.86722 0.92557,-4.13113 0.9256,-6.79175 -3e-5,-3.68636 -0.60507,-6.51926 -1.81514,-8.49871 -1.21012,-1.97939 -2.68066,-3.30568 -4.41163,-3.97888 -1.25018,-0.4808 -3.26166,-0.72122 -6.03444,-0.72125 l -7.40481,0 z"
         style="fill:none;stroke:#808080"
         id="path3935"
         inkscape:connector-curvature="0" />
    </g>
    <g
       style="font-size:52.15858458999999700px;font-style:normal;font-weight:normal;line-height:125%;letter-spacing:0px;word-spacing:0px;fill:none;stroke:#808080;stroke-width:0.81696665000000002;display:inline;font-family:Sans"
       id="text3464-0">
      <path
         d="m 294.71384,255.35755 c 0,-6.1972 1.66391,-11.04886 4.99174,-14.55499 3.32782,-3.50607 7.62343,-5.25912 12.88684,-5.25916 3.44665,4e-5 6.55375,0.82351 9.32131,2.47041 2.7675,1.64696 4.8771,3.94333 6.32881,6.88911 1.45164,2.94583 2.17748,6.28638 2.17752,10.02168 -4e-5,3.78626 -0.76408,7.17351 -2.29212,10.16175 -1.52812,2.98826 -3.6929,5.25067 -6.49436,6.78724 -2.80151,1.53657 -5.82372,2.30486 -9.06663,2.30486 -3.51461,0 -6.65566,-0.84894 -9.42318,-2.54681 -2.76754,-1.69786 -4.86441,-4.01545 -6.29061,-6.95278 -1.42621,-2.9373 -2.13932,-6.0444 -2.13932,-9.32131 z m 5.09361,0.0764 c 0,4.49937 1.20973,8.04367 3.6292,10.63291 2.41945,2.58926 5.4544,3.88389 9.10483,3.88388 3.71832,1e-5 6.77873,-1.30735 9.18124,-3.92208 2.40245,-2.61471 3.6037,-6.32455 3.60373,-11.12954 -3e-5,-3.03917 -0.51364,-5.69209 -1.54082,-7.95877 -1.02724,-2.26663 -2.52985,-4.02392 -4.50784,-5.27189 -1.97805,-1.2479 -4.19801,-1.87187 -6.6599,-1.8719 -3.49763,3e-5 -6.5071,1.20128 -9.02843,3.60373 -2.52135,2.40251 -3.78201,6.41373 -3.78201,12.03366 z"
         style="fill:none;stroke:#808080"
         id="path3938"
         inkscape:connector-curvature="0" />
      <path
         d="m 336.76161,273.54175 0,-37.33618 14.08384,0 c 2.47887,4e-5 4.37199,0.11889 5.67937,0.35656 1.83368,0.30565 3.37025,0.88717 4.60972,1.74456 1.23942,0.85746 2.23692,2.0587 2.9925,3.60373 0.75552,1.54509 1.13329,3.24296 1.13333,5.09361 -4e-5,3.17504 -1.01027,5.86192 -3.0307,8.06064 -2.0205,2.19876 -5.67091,3.29813 -10.95127,3.29811 l -9.57599,0 0,15.17897 z m 4.9408,-19.58494 9.6524,0 c 3.19197,2e-5 5.45863,-0.59423 6.79997,-1.78276 1.34129,-1.18849 2.01195,-2.86089 2.01198,-5.01721 -3e-5,-1.56201 -0.39479,-2.89909 -1.18427,-4.01122 -0.78953,-1.11207 -1.82948,-1.8464 -3.11984,-2.20299 -0.83198,-0.22069 -2.36855,-0.33105 -4.60972,-0.33108 l -9.55052,0 z"
         style="fill:none;stroke:#808080"
         id="path3940"
         inkscape:connector-curvature="0" />
      <path
         d="m 371.70378,273.54175 0,-37.33618 26.99615,0 0,4.40598 -22.05534,0 0,11.43516 20.65459,0 0,4.3805 -20.65459,0 0,12.70856 22.92125,0 0,4.40598 z"
         style="fill:none;stroke:#808080"
         id="path3942"
         inkscape:connector-curvature="0" />
      <path
         d="m 406.39128,273.54175 0,-37.33618 5.06815,0 19.6104,29.31374 0,-29.31374 4.73706,0 0,37.33618 -5.06814,0 -19.61041,-29.33921 0,29.33921 z"
         style="fill:none;stroke:#808080"
         id="path3944"
         inkscape:connector-curvature="0" />
    </g>
    <g
       id="g2574"
       transform="matrix(0.24044885,0,0,-0.24044885,136.12956,446.62871)"
       style="fill:none;stroke:#808080;display:inline">
      <g
         id="g2576"
         clip-path="url(#clipPath2578-7-0-4-9-8)"
         style="fill:none;stroke:#808080">
        <g
           id="g2582"
           transform="translate(605.1592,461.8115)"
           style="fill:none;stroke:#808080">
          <path
             inkscape:connector-curvature="0"
             d="m 0,0 c 0.531,2.126 1.026,4.205 1.501,6.337 0.469,2.074 0.917,4.086 1.334,6.17 0.02,0.104 -0.021,0.223 0,0.333 0.812,4.112 1.561,8.216 2.168,12.342 0.625,4.205 1.083,8.459 1.5,12.672 L 74.541,63.535 71.707,106.393 0.833,122.9 c -0.937,3.978 -1.88,7.907 -3.001,11.84 -1.104,3.873 -2.387,7.691 -3.668,11.508 -2.56,7.661 -5.417,15.144 -8.672,22.513 l 46.526,55.865 0,0.166 -23.68,35.686 0,0.168 -69.705,-20.68 c -0.266,0.288 -0.569,0.549 -0.834,0.834 -11.358,12.168 -24.024,23.389 -37.855,33.352 l 12.007,71.874 -38.522,19.01 -49.861,-52.863 c -16.603,5.084 -33.518,8.351 -50.36,10.007 l -1.502,3.835 c -0.078,0.214 -0.088,0.453 -0.166,0.668 l 0,0.332 -11.34,30.017 -0.5,1.167 c -4.06,10.706 -8.127,21.338 -12.174,32.018 l -42.857,-2.835 -16.509,-70.872 c -15.701,-3.696 -31.111,-8.818 -45.859,-15.343 l -55.864,46.526 -36.02,-23.68 20.678,-69.705 c -6.243,-5.778 -12.301,-11.887 -18.01,-18.342 -2.854,-3.219 -5.631,-6.458 -8.338,-9.84 -0.026,-0.031 0.026,-0.133 0,-0.167 -2.705,-3.388 -5.287,-6.802 -7.838,-10.339 l -71.873,12.006 -19.011,-38.521 52.863,-49.862 c -1.102,-3.6 -2.063,-7.216 -3.001,-10.839 -0.402,-1.563 -0.798,-3.103 -1.168,-4.668 -0.68,-2.845 -1.42,-5.652 -2.001,-8.506 -0.088,-0.44 -0.081,-0.896 -0.167,-1.334 -0.815,-4.112 -1.56,-8.214 -2.167,-12.339 -0.621,-4.213 -1.085,-8.463 -1.502,-12.673 l -68.037,-25.683 2.835,-42.857 70.872,-16.508 c 0.926,-3.925 1.9,-7.791 3.002,-11.674 0.016,-0.051 -0.015,-0.114 0,-0.166 3.299,-11.591 7.468,-22.998 12.34,-34.019 l -46.526,-55.865 0,-0.166 23.68,-35.687 0,-0.166 69.706,20.677 57.277,53.92 c -29.66,32.299 -47.772,75.372 -47.772,122.679 0,100.2 81.23,181.434 181.434,181.434 100.204,0 181.434,-81.234 181.434,-181.434 0,-100.202 -81.23,-181.434 -181.434,-181.434 -5.413,0 -10.767,0.252 -16.06,0.715 l -9.454,-78.092 0,-0.166 c 4.091,-11.445 8.635,-23.118 13.008,-34.686 4.207,-11.105 8.475,-22.111 12.673,-33.185 l 42.857,2.834 16.509,70.873 c 15.693,3.715 31.098,8.807 45.859,15.342 l 55.864,-46.525 36.021,23.68 -20.678,69.704 c 3.149,2.913 6.136,5.92 9.171,9.005 5.956,6.091 11.785,12.434 17.177,19.177 0.025,0.037 -0.027,0.13 0,0.167 2.707,3.388 5.283,6.796 7.837,10.339 l 71.873,-12.006 19.011,38.521 -52.863,49.861 C -2.233,-8.354 -1.056,-4.185 0,0"
             style="fill:none;stroke:#808080"
             id="path2584" />
        </g>
        <g
           id="g2586"
           transform="translate(352.8525,698.6094)"
           style="fill:none;stroke:#808080">
          <path
             inkscape:connector-curvature="0"
             d="m 0,0 c -95.783,0 -173.43,-77.647 -173.43,-173.429 0,-45.234 17.325,-86.355 45.692,-117.232 l 20.895,19.759 c -23.131,25.37 -37.238,59.109 -37.238,96.143 0,78.84 63.912,142.746 142.747,142.746 78.837,0 142.746,-63.906 142.746,-142.746 0,-78.834 -63.909,-142.745 -142.746,-142.745 -3.458,0 -6.884,0.131 -10.279,0.372 l -3.563,-29.059 c 5.011,-0.439 10.053,-0.668 15.176,-0.668 95.782,0 173.43,77.648 173.43,173.43 C 173.43,-77.647 95.782,0 0,0"
             style="fill:none;stroke:#808080"
             id="path2588" />
        </g>
        <g
           id="g2590"
           transform="translate(178.0313,290.5176)"
           style="fill:none;stroke:#808080">
          <path
             inkscape:connector-curvature="0"
             d="m 0,0 -0.208,-0.391 c 0,0 0.093,0.158 0.208,0.391"
             style="fill:none;stroke:#808080"
             id="path2592" />
        </g>
        <g
           id="g2594"
           transform="translate(158.5669,257.4316)"
           style="fill:none;stroke:#808080">
          <path
             inkscape:connector-curvature="0"
             d="m 0,0 -0.201,-0.374 c 0,0 0.087,0.145 0.201,0.374"
             style="fill:none;stroke:#808080"
             id="path2596" />
        </g>
        <g
           id="g2598"
           transform="translate(142.0923,223.9551)"
           style="fill:none;stroke:#808080">
          <path
             inkscape:connector-curvature="0"
             d="m 0,0 -0.206,-0.391 c 0,0 0.094,0.158 0.206,0.391"
             style="fill:none;stroke:#808080"
             id="path2600" />
        </g>
        <g
           id="g2602"
           transform="translate(121.9219,189.5879)"
           style="fill:none;stroke:#808080">
          <path
             inkscape:connector-curvature="0"
             d="m 0,0 -0.201,-0.382 c 0,0 0.086,0.152 0.201,0.382"
             style="fill:none;stroke:#808080"
             id="path2604" />
        </g>
        <g
           id="g2606"
           transform="translate(187.6226,159.5605)"
           style="fill:none;stroke:#808080">
          <path
             inkscape:connector-curvature="0"
             d="M 0,0 -28.148,14.08 -36.327,-2.272 -8.179,-16.354 0,0 z"
             style="fill:none;stroke:#808080"
             id="path2608" />
        </g>
        <g
           id="g2610"
           transform="translate(302.6421,269.8975)"
           style="fill:none;stroke:#808080">
          <path
             inkscape:connector-curvature="0"
             d="m 0,0 c -8.62,11.814 -7.259,14.472 -7.259,14.472 l -1.486,-2.565 c -4.291,-0.385 -16.657,3.925 -52.797,18.625 -66.391,26.969 -54.184,11.83 -66.951,10.538 l -2.395,-4.439 c 8.492,-9.558 6.931,-14.692 6.277,-16.011 l 2.069,3.841 c 5.136,1.174 27.802,-8.343 56.172,-20.125 46.338,-19.204 53.769,-12.413 62.886,-10.203 0.227,0.046 0.362,0.094 0.362,0.094 L 0,0 z"
             style="fill:none;stroke:#808080"
             id="path2612" />
        </g>
        <g
           id="g2614"
           transform="translate(275.9243,251.2939)"
           style="fill:none;stroke:#808080">
          <path
             inkscape:connector-curvature="0"
             d="m 0,0 -1.501,-2.59 c -4.289,-0.387 -16.637,3.923 -52.798,18.604 -66.375,27 -54.183,11.861 -66.943,10.568 l -2.395,-4.439 c 8.505,-9.6 6.923,-14.707 6.277,-16.005 l 2.074,3.815 c 5.131,1.183 27.802,-8.333 56.159,-20.099 46.338,-19.208 53.79,-12.424 62.895,-10.2 0.226,0.048 0.359,0.095 0.359,0.095 l 3.122,5.769 C -1.347,-2.663 0,0 0,0"
             style="fill:none;stroke:#808080"
             id="path2616" />
        </g>
        <g
           id="g2618"
           transform="translate(259.436,217.8213)"
           style="fill:none;stroke:#808080">
          <path
             inkscape:connector-curvature="0"
             d="m 0,0 -1.48,-2.584 c -4.297,-0.396 -16.655,3.924 -52.803,18.615 -66.391,26.952 -54.189,11.849 -66.944,10.547 l -2.402,-4.44 c 8.479,-9.557 6.939,-14.675 6.285,-16.004 l 2.061,3.837 c 5.136,1.172 27.802,-8.355 56.172,-20.122 46.364,-19.229 53.795,-12.418 62.915,-10.193 0.211,0.052 0.339,0.094 0.339,0.094 l 3.116,5.747 C -1.339,-2.678 0,0 0,0"
             style="fill:none;stroke:#808080"
             id="path2620" />
        </g>
        <g
           id="g2622"
           transform="translate(239.2788,183.4482)"
           style="fill:none;stroke:#808080">
          <path
             inkscape:connector-curvature="0"
             d="m 0,0 -1.496,-2.579 c -4.281,-0.386 -16.634,3.925 -52.782,18.61 -66.396,26.978 -54.183,11.84 -66.951,10.547 l -2.4,-4.435 c 8.505,-9.594 6.923,-14.701 6.27,-16.003 l 2.082,3.824 c 5.135,1.173 27.801,-8.348 56.164,-20.105 46.319,-19.188 53.769,-12.434 62.881,-10.213 0.239,0.051 0.375,0.099 0.375,0.099 l 3.121,5.763 C -1.347,-2.668 0,0 0,0"
             style="fill:none;stroke:#808080"
             id="path2624" />
        </g>
        <g
           id="g2626"
           transform="translate(355.6299,495.3564)"
           style="fill:none;stroke:#808080">
          <path
             inkscape:connector-curvature="0"
             d="m 0,0 -28.135,14.088 -96.442,-192.765 28.136,-14.076 L 0,0 z"
             style="fill:none;stroke:#808080"
             id="path2628" />
        </g>
      </g>
    </g>
    <g
       style="font-size:52.15858459px;font-style:normal;font-weight:normal;line-height:125%;letter-spacing:0px;word-spacing:0px;fill:#0000ff;fill-opacity:1;stroke:#0000ff;stroke-width:0.81696665;display:inline;font-family:Sans"
       id="text3552">
      <path
         d="m 174.6316,165.26598 0,-37.33618 5.06815,0 19.6104,29.31374 0,-29.31374 4.73706,0 0,37.33618 -5.06814,0 -19.61041,-29.33921 0,29.33921 z"
         style="fill:none;stroke:#808080"
         id="path3947"
         inkscape:connector-curvature="0" />
      <path
         d="m 210.87265,147.08178 c 0,-6.1972 1.66391,-11.04886 4.99174,-14.55499 3.32781,-3.50607 7.62342,-5.25912 12.88684,-5.25916 3.44665,4e-5 6.55375,0.82351 9.32131,2.4704 2.76749,1.64697 4.87709,3.94334 6.32881,6.88911 1.45164,2.94583 2.17748,6.28639 2.17752,10.02168 -4e-5,3.78627 -0.76408,7.17352 -2.29213,10.16176 -1.52812,2.98826 -3.6929,5.25067 -6.49435,6.78724 -2.80152,1.53657 -5.82372,2.30486 -9.06663,2.30486 -3.51461,0 -6.65567,-0.84894 -9.42318,-2.54681 -2.76754,-1.69787 -4.86441,-4.01546 -6.29061,-6.95278 -1.42622,-2.9373 -2.13932,-6.0444 -2.13932,-9.32131 z m 5.09361,0.0764 c -1e-5,4.49937 1.20972,8.04367 3.6292,10.63291 2.41945,2.58926 5.45439,3.88388 9.10483,3.88388 3.71831,0 6.77872,-1.30736 9.18124,-3.92208 2.40245,-2.61471 3.60369,-6.32456 3.60373,-11.12954 -4e-5,-3.03917 -0.51364,-5.69209 -1.54082,-7.95877 -1.02724,-2.26663 -2.52986,-4.02392 -4.50785,-5.27189 -1.97804,-1.2479 -4.19801,-1.87187 -6.6599,-1.8719 -3.49763,3e-5 -6.5071,1.20127 -9.02842,3.60373 -2.52135,2.40251 -3.78202,6.41373 -3.78201,12.03366 z"
         style="fill:none;stroke:#808080"
         id="path3949"
         inkscape:connector-curvature="0" />
      <path
         d="m 263.59153,165.26598 -14.46586,-37.33618 5.3483,0 9.70333,27.12348 c 0.781,2.17329 1.43468,4.21073 1.96104,6.11234 0.57726,-2.03744 1.24791,-4.07488 2.01197,-6.11234 l 10.08536,-27.12348 5.04267,0 -14.61866,37.33618 z"
         style="fill:none;stroke:#808080"
         id="path3951"
         inkscape:connector-curvature="0" />
      <path
         d="m 283.66037,165.26598 14.33851,-37.33618 5.32283,0 15.28083,37.33618 -5.62844,0 -4.35504,-11.30782 -15.61192,0 -4.10035,11.30782 z m 10.77299,-15.33178 12.65762,0 -3.89661,-10.34003 c -1.18853,-3.14103 -2.07142,-5.72179 -2.64868,-7.74229 -0.47542,2.39403 -1.14608,4.77105 -2.01198,7.13106 z"
         style="fill:none;stroke:#808080"
         id="path3953"
         inkscape:connector-curvature="0" />
      <path
         d="m 336.86313,165.26598 0,-37.33618 4.94081,0 0,32.9302 18.38793,0 0,4.40598 z"
         style="fill:none;stroke:#808080"
         id="path3955"
         inkscape:connector-curvature="0" />
      <path
         d="m 362.00012,165.26598 14.33852,-37.33618 5.32282,0 15.28084,37.33618 -5.62845,0 -4.35503,-11.30782 -15.61192,0 -4.10036,11.30782 z m 10.77299,-15.33178 12.65762,0 -3.89661,-10.34003 c -1.18853,-3.14103 -2.07142,-5.72179 -2.64868,-7.74229 -0.47542,2.39403 -1.14608,4.77105 -2.01197,7.13106 z"
         style="fill:none;stroke:#808080"
         id="path3957"
         inkscape:connector-curvature="0" />
      <path
         d="m 400.73703,165.26598 0,-37.33618 14.00744,0 c 2.8524,4e-5 5.14028,0.37781 6.86364,1.13333 1.72331,0.75559 3.07312,1.91863 4.04942,3.48912 0.97624,1.57057 1.46438,3.21325 1.46441,4.92807 -3e-5,1.59603 -0.43298,3.09864 -1.29887,4.50785 -0.86594,1.40925 -2.1733,2.54683 -3.92208,3.41272 2.25814,0.66219 3.99421,1.79127 5.20822,3.38725 1.21394,1.59602 1.82093,3.48065 1.82096,5.65391 -3e-5,1.74882 -0.36931,3.37453 -1.10786,4.87713 -0.7386,1.50262 -1.6512,2.66142 -2.73781,3.47639 -1.08667,0.81498 -2.44921,1.43046 -4.08763,1.84644 -1.63846,0.41598 -3.64619,0.62397 -6.02319,0.62397 z m 4.94081,-21.64785 8.07337,0 c 2.19024,2e-5 3.76076,-0.1443 4.71159,-0.43296 1.2564,-0.37351 2.20297,-0.99323 2.83969,-1.85917 0.63668,-0.86589 0.95503,-1.95252 0.95505,-3.25991 -2e-5,-1.23942 -0.29715,-2.3303 -0.89138,-3.27265 -0.59428,-0.94228 -1.44321,-1.58747 -2.54681,-1.93557 -1.10363,-0.34803 -2.99676,-0.52206 -5.67937,-0.52209 l -7.46214,0 z m 0,17.24187 9.29584,0 c 1.59598,10e-6 2.71657,-0.0594 3.36178,-0.17827 1.13755,-0.20374 2.08836,-0.54332 2.85242,-1.01873 0.76402,-0.47539 1.39223,-1.16728 1.88464,-2.07564 0.49236,-0.90836 0.73855,-1.95679 0.73857,-3.14531 -2e-5,-1.39224 -0.35657,-2.60197 -1.06965,-3.6292 -0.71313,-1.02719 -1.70214,-1.74879 -2.96703,-2.16478 -1.26494,-0.41596 -3.0859,-0.62395 -5.4629,-0.62397 l -8.63367,0 z"
         style="fill:none;stroke:#808080"
         id="path3959"
         inkscape:connector-curvature="0" />
      <path
         d="m 434.10019,153.27052 4.66065,-0.40749 c 0.22072,1.86767 0.73432,3.4 1.54082,4.59699 0.80648,1.197 2.05866,2.16479 3.75654,2.90335 1.69785,0.73858 3.60796,1.10787 5.73031,1.10787 1.88462,0 3.54853,-0.28015 4.99174,-0.84045 1.44317,-0.56029 2.51707,-1.32858 3.22171,-2.30486 0.70459,-0.97627 1.0569,-2.04168 1.05692,-3.19624 -2e-5,-1.17152 -0.3396,-2.19449 -1.01872,-3.0689 -0.67917,-0.87439 -1.79976,-1.60872 -3.36178,-2.20299 -1.00177,-0.39049 -3.21749,-0.99748 -6.64716,-1.82097 -3.42972,-0.82345 -5.8322,-1.60022 -7.20747,-2.33032 -1.78277,-0.93381 -3.11135,-2.09261 -3.98575,-3.47639 -0.8744,-1.38374 -1.31161,-2.93305 -1.3116,-4.64792 -1e-5,-1.88461 0.53482,-3.64615 1.60449,-5.28463 1.06965,-1.63841 2.63169,-2.8821 4.68612,-3.73107 2.05441,-0.84889 4.33804,-1.27336 6.85091,-1.2734 2.76751,4e-5 5.20819,0.44573 7.32206,1.33707 2.11383,0.89142 3.73954,2.20302 4.87714,3.93482 1.13754,1.73186 1.74877,3.6929 1.8337,5.88312 l -4.73706,0.35655 c -0.25471,-2.36001 -1.11638,-4.14277 -2.58501,-5.34829 -1.46868,-1.20545 -3.63771,-1.8082 -6.50709,-1.80823 -2.98826,3e-5 -5.16578,0.54759 -6.53256,1.64269 -1.36679,1.09516 -2.05018,2.41525 -2.05017,3.96028 -10e-6,1.34135 0.48388,2.44496 1.45167,3.31085 0.9508,0.86594 3.43393,1.75307 7.44941,2.66141 4.01544,0.90838 6.77024,1.70214 8.26439,2.38126 2.17324,1.00177 3.77773,2.27092 4.81346,3.80748 1.03567,1.53659 1.55352,3.30661 1.55355,5.31009 -3e-5,1.98652 -0.56882,3.85842 -1.70636,5.61571 -1.1376,1.7573 -2.7718,3.12408 -4.9026,4.10035 -2.13085,0.97628 -4.52909,1.46442 -7.19473,1.46442 -3.37877,0 -6.20997,-0.49239 -8.49359,-1.47715 -2.28365,-0.98476 -4.0749,-2.46615 -5.37376,-4.44418 -1.29888,-1.97801 -1.98227,-4.21495 -2.05018,-6.71083 z"
         style="fill:none;stroke:#808080"
         id="path3961"
         inkscape:connector-curvature="0" />
      <path
         d="m 485.92768,165.26598 0,-37.33618 4.9408,0 0,37.33618 z"
         style="fill:none;stroke:#808080"
         id="path3963"
         inkscape:connector-curvature="0" />
      <path
         d="m 497.87222,153.27052 4.66066,-0.40749 c 0.22071,1.86767 0.73432,3.4 1.54081,4.59699 0.80648,1.197 2.05866,2.16479 3.75654,2.90335 1.69786,0.73858 3.60796,1.10787 5.73032,1.10787 1.88461,0 3.54852,-0.28015 4.99173,-0.84045 1.44317,-0.56029 2.51707,-1.32858 3.22171,-2.30486 0.70459,-0.97627 1.0569,-2.04168 1.05693,-3.19624 -3e-5,-1.17152 -0.3396,-2.19449 -1.01872,-3.0689 -0.67918,-0.87439 -1.79977,-1.60872 -3.36179,-2.20299 -1.00176,-0.39049 -3.21748,-0.99748 -6.64716,-1.82097 -3.42971,-0.82345 -5.8322,-1.60022 -7.20746,-2.33032 -1.78277,-0.93381 -3.11136,-2.09261 -3.98575,-3.47639 -0.87441,-1.38374 -1.31161,-2.93305 -1.31161,-4.64792 0,-1.88461 0.53483,-3.64615 1.60449,-5.28463 1.06965,-1.63841 2.63169,-2.8821 4.68612,-3.73107 2.05441,-0.84889 4.33805,-1.27336 6.85091,-1.2734 2.76751,4e-5 5.2082,0.44573 7.32207,1.33707 2.11382,0.89142 3.73953,2.20302 4.87713,3.93482 1.13754,1.73186 1.74878,3.6929 1.8337,5.88312 l -4.73706,0.35655 c -0.2547,-2.36001 -1.11637,-4.14277 -2.58501,-5.34829 -1.46868,-1.20545 -3.6377,-1.8082 -6.50708,-1.80823 -2.98827,3e-5 -5.16579,0.54759 -6.53256,1.64269 -1.3668,1.09516 -2.05019,2.41525 -2.05018,3.96028 -1e-5,1.34135 0.48388,2.44496 1.45168,3.31085 0.9508,0.86594 3.43393,1.75307 7.44941,2.66141 4.01544,0.90838 6.77023,1.70214 8.26438,2.38126 2.17325,1.00177 3.77773,2.27092 4.81346,3.80748 1.03567,1.53659 1.55352,3.30661 1.55356,5.31009 -4e-5,1.98652 -0.56882,3.85842 -1.70636,5.61571 -1.13761,1.7573 -2.77181,3.12408 -4.90261,4.10035 -2.13085,0.97628 -4.52909,1.46442 -7.19472,1.46442 -3.37878,0 -6.20998,-0.49239 -8.4936,-1.47715 -2.28364,-0.98476 -4.07489,-2.46615 -5.37376,-4.44418 -1.29887,-1.97801 -1.98227,-4.21495 -2.05018,-6.71083 z"
         style="fill:none;stroke:#808080"
         id="path3965"
         inkscape:connector-curvature="0" />
      <path
         d="m 535.08105,143.43985 0,-5.22095 5.22095,0 0,5.22095 z m 0,21.82613 0,-5.22096 5.22095,0 0,5.22096 z"
         style="fill:none;stroke:#808080"
         id="path3967"
         inkscape:connector-curvature="0" />
    </g>
  </g>
  <g
     style="display:inline"
     inkscape:label="cut"
     inkscape:groupmode="layer"
     id="g3038">
    <path
       style="font-size:medium;font-style:normal;font-variant:normal;font-weight:normal;font-stretch:normal;text-indent:0;text-align:start;text-decoration:none;line-height:normal;letter-spacing:normal;word-spacing:normal;text-transform:none;direction:ltr;block-progression:tb;writing-mode:lr-tb;text-anchor:start;baseline-shift:baseline;color:#000000;fill:none;stroke:#0000ff;stroke-width:0.03543307;stroke-miterlimit:4;stroke-dasharray:none;marker:none;visibility:visible;display:inline;overflow:visible;enable-background:accumulate;font-family:Sans;-inkscape-font-specification:Sans"
       d="m 333.52402,1010.5083 0,0.1563 0,89.6562 0,0.1875 0.1562,0 44.6875,0 0.1563,0 0,-0.1875 0,-89.6562 0,-0.1563 -0.1563,0 -44.6875,0 -0.1562,0 z m 0.3125,0.3125 44.375,0 0,89.3438 -44.375,0 0,-89.3438 z"
       id="rect3201"
       inkscape:connector-curvature="0" />
    <path
       style="font-size:medium;font-style:normal;font-variant:normal;font-weight:normal;font-stretch:normal;text-indent:0;text-align:start;text-decoration:none;line-height:normal;letter-spacing:normal;word-spacing:normal;text-transform:none;direction:ltr;block-progression:tb;writing-mode:lr-tb;text-anchor:start;baseline-shift:baseline;color:#000000;fill:none;stroke:#0000ff;stroke-width:0.03543307;stroke-miterlimit:4;stroke-dasharray:none;marker:none;visibility:visible;display:inline;overflow:visible;enable-background:accumulate;font-family:Sans;-inkscape-font-specification:Sans"
       d="m 356.02952,1194.5007 c -4.0994,0 -7.4333,3.3338 -7.4333,7.4333 0,4.0994 3.3339,7.4146 7.4333,7.4146 4.0995,0 7.4147,-3.3152 7.4147,-7.4146 0,-4.0995 -3.3152,-7.4333 -7.4147,-7.4333 z m 0,0.2049 c 3.9853,0 7.2097,3.243 7.2097,7.2284 0,3.9852 -3.2244,7.2097 -7.2097,7.2097 -3.9853,0 -7.2283,-3.2245 -7.2283,-7.2097 0,-3.9854 3.243,-7.2284 7.2283,-7.2284 z"
       id="path3203-1"
       inkscape:connector-curvature="0" />
    <path
       style="font-size:medium;font-style:normal;font-variant:normal;font-weight:normal;font-stretch:normal;text-indent:0;text-align:start;text-decoration:none;line-height:normal;letter-spacing:normal;word-spacing:normal;text-transform:none;direction:ltr;block-progression:tb;writing-mode:lr-tb;text-anchor:start;baseline-shift:baseline;color:#000000;fill:none;stroke:#0000ff;stroke-width:0.03543307;stroke-miterlimit:4;stroke-dasharray:none;marker:none;visibility:visible;display:inline;overflow:visible;enable-background:accumulate;font-family:Sans;-inkscape-font-specification:Sans"
       d="m 356.02952,901.64632 c -4.0994,0 -7.4333,3.3338 -7.4333,7.4332 0,4.0995 3.3339,7.4147 7.4333,7.4147 4.0995,0 7.4147,-3.3152 7.4147,-7.4147 0,-4.0994 -3.3152,-7.4332 -7.4147,-7.4332 z m 0,0.2049 c 3.9853,0 7.2097,3.243 7.2097,7.2283 0,3.9853 -3.2244,7.2098 -7.2097,7.2098 -3.9853,0 -7.2283,-3.2245 -7.2283,-7.2098 0,-3.9853 3.243,-7.2283 7.2283,-7.2283 z"
       id="path3203-1-4"
       inkscape:connector-curvature="0" />
    <path
       style="font-size:medium;font-style:normal;font-variant:normal;font-weight:normal;font-stretch:normal;text-indent:0;text-align:start;text-decoration:none;line-height:normal;letter-spacing:normal;word-spacing:normal;text-transform:none;direction:ltr;block-progression:tb;writing-mode:lr-tb;text-anchor:start;baseline-shift:baseline;color:#000000;fill:none;stroke:#0000ff;stroke-width:0.03543307;stroke-miterlimit:4;stroke-dasharray:none;marker:none;visibility:visible;display:inline;overflow:visible;enable-background:accumulate;font-family:Sans;-inkscape-font-specification:Sans"
       d="m 1233.3684,1126.5817 c -17.3305,0 -31.2813,13.9821 -31.2813,31.3125 l 0,63.625 c 0,17.3305 13.9508,31.2813 31.2813,31.2813 l 69.2187,0 c 17.3304,0 31.3125,-13.9508 31.3125,-31.2813 l 0,-63.625 c 0,-17.3304 -13.9821,-31.3125 -31.3125,-31.3125 l -69.2187,0 z m 0,0.375 69.2187,0 c 17.1424,0 30.9375,13.7951 30.9375,30.9375 l 0,63.625 c 0,17.1424 -13.7951,30.9375 -30.9375,30.9375 l -69.2187,0 c -17.1424,0 -30.9376,-13.7951 -30.9376,-30.9375 l 0,-63.625 c 0,-17.1424 13.7952,-30.9375 30.9376,-30.9375 z"
       id="rect3609"
       inkscape:connector-curvature="0" />
    <path
       id="path3791"
       d="m 107.61187,814.18261 45.25608,0 0,21.25984 44.77774,0 0,-21.25984 45.41553,0 0,21.25984 44.77774,0 0,-21.25984 45.41553,0 0,21.25984 44.77774,0 0,-21.25984 45.41554,0 0,21.25984 44.77773,0 0,-21.25984 45.41554,0 0,21.25984 44.77773,0 0,-21.25984 45.25609,0"
       style="fill:none;stroke:#0000ff"
       inkscape:label="part"
       inkscape:connector-curvature="0" />
    <path
       id="path3793"
       d="m 603.67486,814.18261 0,45.25608 -21.25984,0 0,44.77774 21.25984,0 0,45.41553 -21.25984,0 0,44.77774 21.25984,0 0,45.4155 -21.25984,0 0,44.7778 21.25984,0 0,45.4155 -21.25984,0 0,44.7777 21.25984,0 0,45.4156 -21.25984,0 0,44.7777 21.25984,0 0,45.2561"
       style="fill:none;stroke:#0000ff"
       inkscape:label="part"
       inkscape:connector-curvature="0" />
    <path
       id="path3795"
       d="m 603.67486,1310.2456 -45.25609,0 0,-21.2598 -44.77773,0 0,21.2598 -45.41554,0 0,-21.2598 -44.77773,0 0,21.2598 -45.41554,0 0,-21.2598 -44.77774,0 0,21.2598 -45.41553,0 0,-21.2598 -44.77774,0 0,21.2598 -45.41553,0 0,-21.2598 -44.77774,0 0,21.2598 -45.25608,0"
       style="fill:none;stroke:#0000ff"
       inkscape:label="part"
       inkscape:connector-curvature="0" />
    <path
       id="path3797"
       d="m 107.61187,1310.2456 0,-45.2561 21.25984,0 0,-44.7777 -21.25984,0 0,-45.4156 21.25984,0 0,-44.7777 -21.25984,0 0,-45.4155 21.25984,0 0,-44.7778 -21.25984,0 0,-45.4155 21.25984,0 0,-44.77774 -21.25984,0 0,-45.41553 21.25984,0 0,-44.77774 -21.25984,0 0,-45.25608"
       style="fill:none;stroke:#0000ff"
       inkscape:label="part"
       inkscape:connector-curvature="0" />
    <path
       id="path3799"
       d="m 607.21817,814.18261 45.25608,0 0,21.25984 44.77774,0 0,-21.25984 45.41553,0 0,21.25984 44.77774,0 0,-21.25984 45.41553,0 0,21.25984 44.77774,0 0,-21.25984 45.41553,0 0,21.25984 44.77774,0 0,-21.25984 45.4155,0 0,21.25984 44.7778,0 0,-21.25984 45.2561,0"
       style="fill:none;stroke:#0000ff"
       inkscape:label="part"
       inkscape:connector-curvature="0" />
    <path
       id="path3801"
       d="m 1103.2812,814.18261 0,45.25608 -21.2599,0 0,44.77774 21.2599,0 0,45.41553 -21.2599,0 0,44.77774 21.2599,0 0,45.4155 -21.2599,0 0,44.7778 21.2599,0 0,45.4155 -21.2599,0 0,44.7777 21.2599,0 0,45.4156 -21.2599,0 0,44.7777 21.2599,0 0,45.2561"
       style="fill:none;stroke:#0000ff"
       inkscape:label="part"
       inkscape:connector-curvature="0" />
    <path
       id="path3803"
       d="m 1103.2812,1310.2456 -45.2561,0 0,-21.2598 -44.7778,0 0,21.2598 -45.4155,0 0,-21.2598 -44.77774,0 0,21.2598 -45.41553,0 0,-21.2598 -44.77774,0 0,21.2598 -45.41553,0 0,-21.2598 -44.77774,0 0,21.2598 -45.41553,0 0,-21.2598 -44.77774,0 0,21.2598 -45.25608,0"
       style="fill:none;stroke:#0000ff"
       inkscape:label="part"
       inkscape:connector-curvature="0" />
    <path
       id="path3805"
       d="m 607.21817,1310.2456 0,-45.2561 21.25984,0 0,-44.7777 -21.25984,0 0,-45.4156 21.25984,0 0,-44.7777 -21.25984,0 0,-45.4155 21.25984,0 0,-44.7778 -21.25984,0 0,-45.4155 21.25984,0 0,-44.77774 -21.25984,0 0,-45.41553 21.25984,0 0,-44.77774 -21.25984,0 0,-45.25608"
       style="fill:none;stroke:#0000ff"
       inkscape:label="part"
       inkscape:connector-curvature="0" />
    <path
       id="path3807"
       d="m 1128.0843,814.18261 32.7579,0 0,21.25984 53.5394,0 0,-21.25984 54.1772,0 0,21.25984 53.5393,0 0,-21.25984 32.7579,0"
       style="fill:none;stroke:#0000ff"
       inkscape:label="part"
       inkscape:connector-curvature="0" />
    <path
       id="path3809"
       d="m 1354.856,814.18261 0,44.93719 21.2598,0 0,45.41553 -21.2598,0 0,44.77774 21.2598,0 0,45.41553 -21.2598,0 0,44.7777 21.2598,0 0,45.4156 -21.2598,0 0,44.7777 21.2598,0 0,45.4155 -21.2598,0 0,44.7778 21.2598,0 0,45.4155 -21.2598,0 0,44.9372"
       style="fill:none;stroke:#0000ff"
       inkscape:label="part"
       inkscape:connector-curvature="0" />
    <path
       id="path3811"
       d="m 1354.856,1310.2456 -32.7579,0 0,-21.2598 -53.5393,0 0,21.2598 -54.1772,0 0,-21.2598 -53.5394,0 0,21.2598 -32.7579,0"
       style="fill:none;stroke:#0000ff"
       inkscape:label="part"
       inkscape:connector-curvature="0" />
    <path
       id="path3813"
       d="m 1128.0843,1310.2456 0,-44.9372 -21.2598,0 0,-45.4155 21.2598,0 0,-44.7778 -21.2598,0 0,-45.4155 21.2598,0 0,-44.7777 -21.2598,0 0,-45.4156 21.2598,0 0,-44.7777 -21.2598,0 0,-45.41553 21.2598,0 0,-44.77774 -21.2598,0 0,-45.41553 21.2598,0 0,-44.93719"
       style="fill:none;stroke:#0000ff"
       inkscape:label="part"
       inkscape:connector-curvature="0" />
    <path
       id="path3815"
       d="m 1400.919,814.18261 32.7579,0 0,21.25984 53.5393,0 0,-21.25984 54.1772,0 0,21.25984 53.5394,0 0,-21.25984 32.7578,0"
       style="fill:none;stroke:#0000ff"
       inkscape:label="part"
       inkscape:connector-curvature="0" />
    <path
       id="path3817"
       d="m 1627.6906,814.18261 0,44.93719 21.2599,0 0,45.41553 -21.2599,0 0,44.77774 21.2599,0 0,45.41553 -21.2599,0 0,44.7777 21.2599,0 0,45.4156 -21.2599,0 0,44.7777 21.2599,0 0,45.4155 -21.2599,0 0,44.7778 21.2599,0 0,45.4155 -21.2599,0 0,44.9372"
       style="fill:none;stroke:#0000ff"
       inkscape:label="part"
       inkscape:connector-curvature="0" />
    <path
       id="path3819"
       d="m 1627.6906,1310.2456 -32.7578,0 0,-21.2598 -53.5394,0 0,21.2598 -54.1772,0 0,-21.2598 -53.5393,0 0,21.2598 -32.7579,0"
       style="fill:none;stroke:#0000ff"
       inkscape:label="part"
       inkscape:connector-curvature="0" />
    <path
       id="path3821"
       d="m 1400.919,1310.2456 0,-44.9372 -21.2598,0 0,-45.4155 21.2598,0 0,-44.7778 -21.2598,0 0,-45.4155 21.2598,0 0,-44.7777 -21.2598,0 0,-45.4156 21.2598,0 0,-44.7777 -21.2598,0 0,-45.41553 21.2598,0 0,-44.77774 -21.2598,0 0,-45.41553 21.2598,0 0,-44.93719"
       style="fill:none;stroke:#0000ff"
       inkscape:label="part"
       inkscape:connector-curvature="0" />
    <path
       id="path3823"
       d="m 129.15709,1344.8307 23.6774,0 0,-21.2599 45.4155,0 0,21.2599 44.7778,0 0,-21.2599 45.4155,0 0,21.2599 44.7777,0 0,-21.2599 45.4156,0 0,21.2599 44.7777,0 0,-21.2599 45.4155,0 0,21.2599 44.7778,0 0,-21.2599 45.4155,0 0,21.2599 23.6773,0"
       style="fill:none;stroke:#0000ff"
       inkscape:label="part"
       inkscape:connector-curvature="0" />
    <path
       id="path3825"
       d="m 582.70039,1344.8307 0,32.4389 21.2599,0 0,54.1772 -21.2599,0 0,53.5394 21.2599,0 0,54.1771 -21.2599,0 0,32.439"
       style="fill:none;stroke:#0000ff"
       inkscape:label="part"
       inkscape:connector-curvature="0" />
    <path
       id="path3827"
       d="m 582.70039,1571.6023 -23.6773,0 0,21.2599 -45.4155,0 0,-21.2599 -44.7778,0 0,21.2599 -45.4155,0 0,-21.2599 -44.7777,0 0,21.2599 -45.4156,0 0,-21.2599 -44.7777,0 0,21.2599 -45.4155,0 0,-21.2599 -44.7778,0 0,21.2599 -45.4155,0 0,-21.2599 -23.6774,0"
       style="fill:none;stroke:#0000ff"
       inkscape:label="part"
       inkscape:connector-curvature="0" />
    <path
       id="path3829"
       d="m 129.15709,1571.6023 0,-32.439 -21.2598,0 0,-54.1771 21.2598,0 0,-53.5394 -21.2598,0 0,-54.1772 21.2598,0 0,-32.4389"
       style="fill:none;stroke:#0000ff"
       inkscape:label="part"
       inkscape:connector-curvature="0" />
    <path
       id="path3831"
       d="m 628.76339,1344.8307 23.6774,0 0,-21.2599 45.4155,0 0,21.2599 44.7778,0 0,-21.2599 45.4155,0 0,21.2599 44.7777,0 0,-21.2599 45.4156,0 0,21.2599 44.7777,0 0,-21.2599 45.4155,0 0,21.2599 44.77781,0 0,-21.2599 45.4155,0 0,21.2599 23.6773,0"
       style="fill:none;stroke:#0000ff"
       inkscape:label="part"
       inkscape:connector-curvature="0" />
    <path
       id="path3833"
       d="m 1082.3067,1344.8307 0,32.4389 21.2599,0 0,54.1772 -21.2599,0 0,53.5394 21.2599,0 0,54.1771 -21.2599,0 0,32.439"
       style="fill:none;stroke:#0000ff"
       inkscape:label="part"
       inkscape:connector-curvature="0" />
    <path
       id="path3835"
       d="m 1082.3067,1571.6023 -23.6773,0 0,21.2599 -45.4155,0 0,-21.2599 -44.77781,0 0,21.2599 -45.4155,0 0,-21.2599 -44.7777,0 0,21.2599 -45.4156,0 0,-21.2599 -44.7777,0 0,21.2599 -45.4155,0 0,-21.2599 -44.7778,0 0,21.2599 -45.4155,0 0,-21.2599 -23.6774,0"
       style="fill:none;stroke:#0000ff"
       inkscape:label="part"
       inkscape:connector-curvature="0" />
    <path
       id="path3837"
       d="m 628.76339,1571.6023 0,-32.439 -21.2598,0 0,-54.1771 21.2598,0 0,-53.5394 -21.2598,0 0,-54.1772 21.2598,0 0,-32.4389"
       style="fill:none;stroke:#0000ff"
       inkscape:label="part"
       inkscape:connector-curvature="0" />
  </g>
</svg>
